<?xml version="1.0" encoding="UTF-8"?>
<svg width="192.88mm" height="338.81mm" version="1.1" viewBox="0 0 683.42103 1200.494" xmlns="http://www.w3.org/2000/svg">
 <g transform="translate(1274.4 483.65)">
  <g transform="matrix(1.25 0 0 1.25 -2172 -467.19)">
   <g transform="translate(0,-40)" stroke-width="1.6">
    <path d="m908.01 973.64c-16.459-0.64996 0.76995-3.3353 8.2694-2.2235 10.679 0.821 21.399-0.59864 32.058 1.2315 0.11999 1.1973 0.34997 3.609 0.45997 4.8062-29.588-1.1289-59.186-0.29077-88.774-0.54733l-0.05-1.6933c15.699-1.3512 34.058 2.4288 48.037-1.5736z" fill="#ffc5bc" stroke="#ffc5bc"/>
    <path d="m780.88 973.66c26.388-1.4367 52.716 1.1973 79.085 1.5565l0.05 1.6933c-17.619 0.17104-35.248-0.22235-52.866-0.0855-1.3599 4.7378 6.3096 0.49602 8.1694 3.1472-11.499 2.6853-23.508-2.2577-34.718 0.23946 0.05-2.2064 0.14999-4.3958 0.27998-6.5509z" fill="#d5998c" stroke="#d5998c"/>
    <path d="m948.33 972.65 0.92994 0.17104c1.6799 1.1289 0.53996 5.097 0.82994 7.4574-44.927-0.17104-89.864 0.54733-134.77-0.30787-1.8599-2.6511-9.5294 1.5907-8.1694-3.1472 17.619-0.13683 35.248 0.25656 52.866 0.0855 29.588 0.25656 59.186-0.58154 88.774 0.54733-0.11-1.1973-0.33998-3.609-0.45997-4.8062z" fill="#ac695f" stroke="#ac695f"/>
    <path d="m780.6 980.21c11.209-2.4972 23.218 2.4459 34.718-0.23946 44.907 0.8552 89.844 0.13683 134.77 0.30787-0.07 1.2657-0.19999 3.7629-0.26998 5.0115-54.576 0.39339-109.18 0.10262-163.77 0.11973-3.7697 2.0525-5.5896 0.32497-5.4496-5.1996z" fill="#f5d7d2" stroke="#f5d7d2"/>
   </g>
   <g transform="translate(3.2,-40)" stroke-width="1.6">
    <path d="m1037 971.78c11.559-0.10263 23.128 0.34208 34.698-0.4276 10.159-0.0342 19.849 1.4025 5.2797 3.8142 39.097 0.71838 78.165-3.4892 117.29-1.3512-22.488 4.105-45.257-1.3512-67.685 2.634-29.088-2.3775-63.296 6.3969-89.874-3.113l0.29-1.5565z" fill="#ffc9b1" stroke="#ffc9b1"/>
    <path d="m1036.1 980.23c0.27-2.0696-1.3799-6.9785 0.64-6.893 26.578 9.5099 60.786 0.73548 89.874 3.113 18.749 1.0262 37.497 0.13684 56.256 0.37629-1.8898 4.6523-8.3494-0.37629-11.929 3.113-0.4499 0.22235-1.3699 0.66706-1.8298 0.88941-44.367-3.0616-88.694 3.8655-133.01-0.59864z" fill="#a16056" stroke="#a16056"/>
    <path d="m1194.3 973.81c3.1898-0.15394 6.3196-0.18815 9.5394-0.0342 0.07 1.146 0.22 3.4379 0.29 4.5839-10.969 2.8564-22.128 2.4117-33.188 1.5736 3.5798-3.4892 10.039 1.5394 11.929-3.113-18.759-0.23945-37.507 0.64996-56.256-0.37629 22.428-3.9853 45.197 1.471 67.685-2.634z" fill="#d08f82" stroke="#d08f82"/>
    <path d="m1170.9 979.93c11.059 0.8381 22.218 1.2828 33.188-1.5736 3.7197 12.948-6.5296 5.7983-10.829 6.7561-22.048-3.2156-44.207-0.37629-66.296-1.3854 11.889-5.422 28.578 1.7446 42.107-2.9077 0.4599-0.22235 1.3799-0.66706 1.8298-0.88941z" fill="#fffcfb" stroke="#fffcfb"/>
    <path d="m1035 985.41c-0.4-2.9761-0.03-4.7036 1.1199-5.1826 44.317 4.4642 88.644-2.463 133.01 0.59864-13.529 4.6523-30.218-2.5143-42.107 2.9077 22.088 1.0092 44.247-1.8301 66.296 1.3854-52.776 0.73547-105.55 0.18814-158.32 0.29077z" fill="#ebc7c2" stroke="#ebc7c2"/>
   </g>
   <path d="m921.68 0h7.03c6.19 2.74-3.67 2.49-6.25 3.44-26.92 8.21-53.34 20.91-73.81 40.51-1.01 0.66-2.04 1.3-2.99 2.02-30.04 25.76-56.78 57.89-68.34 96.35-31.66 81.53-10.04 180.51 53.79 240.58 6.31 18.23 9.22 38.1 18.51 55.38 1.42 3.03 4.62 0.18 6.4-0.97 3.02-1.13 3.04-6.95 6.75-5.76-0.7 8.83-10.91 15.72-5.06 25.44 5.56 14.9 12.62 29.77 24.24 40.91-0.71 0.67-1.41 1.35-2.09 2.03-11.78-8.55-16.33-22.77-23.21-34.82-6.79 2.32-3.21 18.21-13.26 19.58-17.59 3.04-22.31-18.22-23.95-31.46 3.86 5.92 8.85 38.37 26.72 26.17 1.79-2.42 3.09-5.18 4.34-7.91 2.24-5.43 1.45-11.55 1.5-17.3-0.13-2.06-0.13-4.17-0.91-6.1-3.29-1.88-4.71-7.06-8.79-6.95 2 8.91 4.12 18.28 0.88 27.19-0.74 2.12-0.94 7.35-4.26 4.8-8.44-11.78-11.3-27.48-6.19-41.27 2.5-2.45 4.76-5.39 5.36-8.94-0.12-3.88-4.53-4.01-5.91-6.73 8.29-5.85-0.21-21.45-9.02-26.67 0.57-15.11-13.65-25.9-28.14-19.51-1.15-7.09 6.93-5.62 11.6-6.32 0.65-4.83-5.86-12.92-11.08-9.45-11.02 8.57-9.16 29.68 4.32 34.94 12.42 5.33 25 13.78 28.48 27.65 2.43 2.79-2.63 11.05-3.54 5.7 1.4-16.05-14.21-24.8-26.6-30.69-15.48-6.82-18.18-32.11-3.15-40.93 4.25-2.28 0.23-6.85-1.53-9.46-38.69-61.4-43.82-141.57-16.5-208.43 24.78-63.34 81.01-111.38 144.66-133.02m-95.73 384.26c-0.19 9.91 8.32 2.21 0 0m12.41 43.83c-1.17 2.05-4.25 6.59 0.04 6.63 5.48 2.98 5.09-8.61-0.04-6.63m-4.24 8.85c-4.19 9.07-3.96 25.55 5.77 30.15 2.07-8.87 6.5-28.55-5.77-30.15z" fill="#060000" stroke="#060000" stroke-width="1.6"/>
   <path d="m928.71 0h4.64c17.707-2.3524 37.161-8.8601 54.941-8.8254 19.342 0.037814 38.689 3.4007 56.279 8.8254h3.69c-0.59 0.32-1.76 0.95-2.35 1.27 87.97 20.61 159.64 100.89 168.62 191.15 8.56 64.83-11.71 135.02-58.62 181.38 0.04-0.39 0.12-1.15 0.15-1.53 60.04-62.48 75.2-161.48 41.13-240.47-28.03-63.33-86.05-114.71-154.3-129.51-48.12 6.44-100.39-11.33-145.29 12.29-17.13 9.59-36.01 17.57-49.45 32.33 0.16-0.99 0.33-1.97 0.5-2.96 20.47-19.6 46.89-32.3 73.81-40.51 2.58-0.95 12.44-0.7 6.25-3.44z" fill="#a01007" stroke="#a01007" stroke-width="1.6"/>
   <path d="m1048.3 0h8.97c79.52 26.63 145.01 96.45 158.39 180.38 8.53 54.8-0.31 113.55-30.57 160.68-1.35 1.99-4.62 6.24-0.71 7.66 12.82 4.71 17.32 21.97 10.47 33.14-5.77 12.49-21.84 12.84-30.08 22.85-8.59 8.5-6.13 22.91-15.01 31.21-4.27 5.26-13.23-2.56-15.84 4.21-3.2 11.87-6.36 23.8-11.62 34.96-2.33-1.71-3.33 1.17-4.53 2.71 2.7-6.89 7.45-13.48 6.08-21.28 9.85-3.98-8.53-15.82-5.96-25.93 3.21 5.31 11.81 14.7 13.32 3.6 0.25-0.51 0.76-1.55 1.02-2.06 5.63-12.88 9.35-26.64 13.03-40.2-0.07-4.21 0.84-8.46 4.52-10.85 0.85-0.81 1.66-1.68 2.45-2.57 1.32-1.5 2.51-3.11 3.72-4.71 46.91-46.36 67.18-116.55 58.62-181.38-8.98-90.26-80.65-170.54-168.62-191.15 0.59-0.32 1.76-0.95 2.35-1.27m122.99 363.15c3.14 2.5 18.02-1.47 16.66 6.76-9.77-0.7-23.2-4.18-28.69 6.38 2.43 6.43 2.57 18.45-6.91 17.5-0.32-3.82 9.93-9.76 1.94-13.08-7.63 13.33-9.27 28.88-14.48 43.04-5.12 5.57-1.94 15.06 6.95 10.09 10.93-10.44 7.17-30.81 23.15-38.02 5.75-2.23 10.95-5.7 16.5-8.4 10.37-8.01 11.59-27.35-0.81-34.1-6.82-4.73-12.14 4.82-14.31 9.83z" fill="#0a0000" stroke="#0a0000" stroke-width="1.6"/>
   <path d="m897.6 14.58c27.189-14.303 58.34-25.179 88.376-23.694 19.565 0.9674 37.514 3.0334 56.914 11.404 68.25 14.8 126.27 66.18 154.3 129.51 34.07 78.99 18.91 177.99-41.13 240.47 2.26-14.94 9.46-28.73 10.39-43.95 4.16-26.79-7.59-51.94-14.31-77.05 4.3-4.73 14.81-6.83 14.85-15.01-6.42-4.09-19.84 5.22-21.07-5.05 9.81-9.61 17.56-24.59 13.9-37.85-7.63 2.01-14.94 17.01-24.73 13.45-1.23-14.59 3.32-29.92-1.24-44.52-4.2-0.47-4.21 8.68-7.68 8.42-4.11-9.54-1-27.99-10.7-32.4-8.39 16.22-17.58 34.44-33 45.29-3.3-4.99 2.5-19.72-5.24-22.71-8.98 18.54-21.62 35.61-37.26 49.04-16.29 13.78-45.43 8.09-51.05-13.78-8.12 2.89-10.19 13.7-17.06 17.7-15.54-4.79-27-20.69-23.7-37.42-0.88-7.24 6.03-15.7 3.38-22.21-18.88 1.86-33.47 17.19-48.3 26.74 0.64-9.41 5.94-17.73 7.46-26.83-8.71 1-13.04 12.68-20.82 15.64-3.39-14.19 1.43-29.29 3.74-43.58-12.13 1.46-21.22 11.32-31.81 16.57 7.46-16.97 22.3-30.52 29.04-47.56-8.49 1.91-14.91 9.41-23.08 12.54 10.96-17.53 27.48-30.73 40.47-46.67 1.27-1.7 0.4-3.79-1.84-2.88-12.32 5.69-23.46 13.68-35.79 19.38 3.81-11.41 14.13-19.99 17.18-31.38-20.73 3.15-38.67 14.97-56.59 24.99 2.81-6.18 7.53-11.24 10.77-17.19 1.97-2.43 4.14-4.69 6.18-7.08 13.44-14.76 32.32-22.74 49.45-32.33z" fill="#f51901" stroke="#f51901" stroke-width="1.6"/>
   <path d="m845.66 45.97c0.95-0.72 1.98-1.36 2.99-2.02-0.17 0.99-0.34 1.97-0.5 2.96-2.04 2.39-4.21 4.65-6.18 7.08-6.35 6.1-12.02 13.39-14.83 21.8 18-10.18 35.76-23.1 56.58-26.7-2.83 11.32-14.22 19.82-16.42 31.66 12.94-3.38 23.41-13.47 35.79-18.59-11.47 18.19-31.75 31.06-40.86 50.88 9.5-1.95 15.54-11.28 24.74-13.87-7.85 16.74-24.03 30.19-29.03 48.47 10.8-5.51 20.44-15.86 32.93-18.59-2.3 14.46-3.76 29.07-2.9 43.75 8.01-1.63 11.59-11.7 19.67-14.1-2.08 8.45-6.22 16.45-7.28 25.13 0.07 3.62 3.87 1.43 5.29-0.15 11.92-13.25 27.74-23.79 45.23-27.61-9.26 22.05-5.72 54.02 21.89 59.92 5.24-4.94 8.69-12.87 15.29-17.09 5.81 17.33 27.17 24.73 43.36 17.51 21.69-9.78 34.51-31.42 45.9-51.21 6.46 2.69-1.48 19.53 4.32 22.6 13.94-11.82 25.64-26.76 32.16-43.97 0.54-1.76 1.7-3.64 3.81-2.56 4.53 10.83 5.31 22.75 6.71 34.28 5.2 2.95 3.27-8.6 8.69-7.37 4.82 13.4-2.78 27.92 1.18 40.63 9.13 2.32 17.83-8.32 24.92-12.37 1.63 11.54-5.56 25.16-14.81 33.3-2.59 11.47 12.88 7.2 19.45 7.44 0.26 6.83-8.23 9.01-13.36 11.37 1.43 15.2 9.61 28.86 12.1 43.92 8.36 27.57-0.36 56.33-11.08 81.9-0.4 1.39-1.49 3.91 0.78 4.14-0.79 0.89-1.6 1.76-2.45 2.57-5.91-14.94 8.91-32.55 4.49-48.86 1.12-23.46-9.65-42.53-14.49-64.84 6.21 4.3 5.01-3.62 5.53-7.79-1.9-5.05-7.26-9.6-3.45-15.04-5.97 1.52-7.47-6.62-5.22-10.69-6.32 2.76-6.9-6.46-10.07-10.09-26.03-14.45-58.13-14.96-86.43-6.47-14.83 2.11-31.62 6.26-45.49 1.59-14.53-0.13-31.98 5.82-44.68-3.06-23.58 4.6-56.09-12.58-80.75 2.12-7.16 1.71-18.7 5.19-11.95 13.2-5.87 2.66-15.75 2.68-21.67 10.31-14.53 9.23-5.92 26.39-4.75 39.64-3.03 33.02-6.88 67.28 1.37 99.85-17.64-21.74-37.22-42.15-47.11-68.92-36.07-78.21-20.78-179.61 39.43-240.55 5.75-9.55 14.94-16.28 21.16-25.51z" fill="#6a0000" stroke="#6a0000" stroke-width="1.6"/>
   <path d="m777.32 142.32c11.56-38.46 38.3-70.59 68.34-96.35-6.22 9.23-15.41 15.96-21.16 25.51-60.21 60.94-75.5 162.34-39.43 240.55 9.89 26.77 29.47 47.18 47.11 68.92 5.25 16.87 11.46 33.54 19.61 49.24 0.08 0.4 0.24 1.18 0.32 1.58 0.23 2.48 1.51 4.62 3.91 5.54-1.78 1.15-4.98 4-6.4 0.97-9.29-17.28-12.2-37.15-18.51-55.38-63.83-60.07-85.45-159.05-53.79-240.58z" fill="#530000" stroke="#530000" stroke-width="1.6"/>
   <path d="m831.2 71.18c17.92-10.02 35.86-21.84 56.59-24.99-3.05 11.39-13.37 19.97-17.18 31.38 12.33-5.7 23.47-13.69 35.79-19.38 2.24-0.91 3.11 1.18 1.84 2.88-12.99 15.94-29.51 29.14-40.47 46.67 8.17-3.13 14.59-10.63 23.08-12.54-6.74 17.04-21.58 30.59-29.04 47.56 10.59-5.25 19.68-15.11 31.81-16.57-2.31 14.29-7.13 29.39-3.74 43.58 7.78-2.96 12.11-14.64 20.82-15.64-1.52 9.1-6.82 17.42-7.46 26.83 14.83-9.55 29.42-24.88 48.3-26.74 2.65 6.51-4.26 14.97-3.38 22.21-3.3 16.73 8.16 32.63 23.7 37.42 6.87-4 8.94-14.81 17.06-17.7 5.62 21.87 34.76 27.56 51.05 13.78 15.64-13.43 28.28-30.5 37.26-49.04 7.74 2.99 1.94 17.72 5.24 22.71 15.42-10.85 24.61-29.07 33-45.29 9.7 4.41 6.59 22.86 10.7 32.4 3.47 0.26 3.48-8.89 7.68-8.42 4.56 14.6 0.01 29.93 1.24 44.52 9.79 3.56 17.1-11.44 24.73-13.45 3.66 13.26-4.09 28.24-13.9 37.85 1.23 10.27 14.65 0.96 21.07 5.05-0.04 8.18-10.55 10.28-14.85 15.01 6.72 25.11 18.47 50.26 14.31 77.05-0.93 15.22-8.13 29.01-10.39 43.95-0.03 0.38-0.11 1.14-0.15 1.53-1.21 1.6-2.4 3.21-3.72 4.71-2.27-0.23-1.18-2.75-0.78-4.14 10.72-25.57 19.44-54.33 11.08-81.9-2.49-15.06-10.67-28.72-12.1-43.92 5.13-2.36 13.62-4.54 13.36-11.37-6.57-0.24-22.04 4.03-19.45-7.44 9.25-8.14 16.44-21.76 14.81-33.3-7.09 4.05-15.79 14.69-24.92 12.37-3.96-12.71 3.64-27.23-1.18-40.63-5.42-1.23-3.49 10.32-8.69 7.37-1.4-11.53-2.18-23.45-6.71-34.28-2.11-1.08-3.27 0.8-3.81 2.56-6.52 17.21-18.22 32.15-32.16 43.97-5.8-3.07 2.14-19.91-4.32-22.6-11.39 19.79-24.21 41.43-45.9 51.21-16.19 7.22-37.55-0.18-43.36-17.51-6.6 4.22-10.05 12.15-15.29 17.09-27.61-5.9-31.15-37.87-21.89-59.92-17.49 3.82-33.31 14.36-45.23 27.61-1.42 1.58-5.22 3.77-5.29 0.15 1.06-8.68 5.2-16.68 7.28-25.13-8.08 2.4-11.66 12.47-19.67 14.1-0.86-14.68 0.6-29.29 2.9-43.75-12.49 2.73-22.13 13.08-32.93 18.59 5-18.28 21.18-31.73 29.03-48.47-9.2 2.59-15.24 11.92-24.74 13.87 9.11-19.82 29.39-32.69 40.86-50.88-12.38 5.12-22.85 15.21-35.79 18.59 2.2-11.84 13.59-20.34 16.42-31.66-20.82 3.6-38.58 16.52-56.58 26.7 2.81-8.41 8.48-15.7 14.83-21.8-3.24 5.95-7.96 11.01-10.77 17.19z" fill="#b80100" stroke="#b80100" stroke-width="1.6"/>
   <path d="m1040.1 217.3c28.3-8.49 60.4-7.98 86.43 6.47 3.17 3.63 3.75 12.85 10.07 10.09-2.25 4.07-0.75 12.21 5.22 10.69-3.81 5.44 1.55 9.99 3.45 15.04-0.52 4.17 0.68 12.09-5.53 7.79 4.84 22.31 15.61 41.38 14.49 64.84 4.42 16.31-10.4 33.92-4.49 48.86-3.68 2.39-4.59 6.64-4.52 10.85-1.28-7.02-4.36 1.28-5.28 4.37l-0.31 0.74c-0.7-1.11-1.4-2.22-2.05-3.34 9.48-30.11 13.99-62.69 5.3-93.53-5.4-15.97-10.36-32.49-8.91-49.53-6.77-24.13-34.75-34.47-57.6-32.62-56.09 9.5-113.84 11.57-169.76 0.1-16.4-2.92-33.29 2.36-46.69 11.85-0.9 0.4-1.8 0.79-2.69 1.18-6.75-8.01 4.79-11.49 11.95-13.2 24.66-14.7 57.17 2.48 80.75-2.12 12.7 8.88 30.15 2.93 44.68 3.06 13.87 4.67 30.66 0.52 45.49-1.59z" fill="#4e0000" stroke="#4e0000" stroke-width="1.6"/>
   <path d="m859.92 229.97c13.4-9.49 30.29-14.77 46.69-11.85 55.92 11.47 113.67 9.4 169.76-0.1 22.85-1.85 50.83 8.49 57.6 32.62-1.45 17.04 3.51 33.56 8.91 49.53 8.69 30.84 4.18 63.42-5.3 93.53-4.91 12.89-10.61 25.81-19.96 36.16-2.14 8.58 1.85 18.51 6.19 26.66 1.37 7.8-3.38 14.39-6.08 21.28-14.69 33.36-55.13 33.12-80.71 53.37-6.51 1.47-15.52-12.17-14.48 1.39-6.95 14.23-29.33 13.91-43.58 10.72-14.02-2.2-5.54-21.83-18-24.49-12.21-0.98-24.7-1.79-36.13-6.61-28.33-10.03-62.24-29.87-65-63.2 2.59-5.45 2.2-11.76 4.05-17.51-20.59-21.85-25.34-52.53-30.76-80.86-6.21-35.31 14.97-66.95 13.67-101.55 2.75-7.37 8.04-13.26 13.13-19.09m204.52 140.2c-16.98 1.4-34 2.02-51 3.05-2.58 1.06-1.73 4.82 0.48 5.84 9.22 9.9 21.18 17.89 34.93 19.33 8.98-0.05 19.64 3.03 27.1-3.52 2.05 1.19 4.36 0.64 6.05-0.93 11.13-4.23 22.97-12.8 26.25-24.99-0.4-2.67 0.53-7.55-5.09-4.9-13.14 0.76-25.66 5.91-38.72 6.12m-191.38-0.49c7.69 12.45 18.93 25.69 34.21 27.98 6.58 2.63 13.19 4.84 20.54 3.56 2.59 2.08 7.45 0.67 10.2-1.24 13.02-2.01 27.28-9.11 32.46-22.05-0.35-1.68 0.05-4.42-2.5-3.89-28.29 0.25-56.34-1.23-84-6.1-1.97-1.24-12.3-4.49-10.91 1.74m116.13 36.23c-0.39 8.64-12.15 23.14-4.36 28.15 5.87 4.7 16.63 2.93 18.88-4.1-3.89-0.4-6.72 3.59-10.68 2.92-1.45-7.81 1.94-21.95-3.84-26.97m45.55 62.67c-23.02 6.09-46.66 11.64-70.66 10.2-6.05-5.5-6.18 3.6-2.76 3.33 25.7 0.18 51.95-3.02 76.27-11.52 4.31-0.72 1.4-5.69-2.85-2.01m-18.18 20.79c-8.28 4.38-18.01 2.91-26.85 4.2-3.5 10.64 40.22-1.35 26.85-4.2m0 10.21c-6.46 1.23-13.5 0.29-19.6 2.52 2.26 6.41 14.06 3.49 17.91 10.19 8.18 8.49 11.06-19.21 1.69-12.71z" fill="#ffa938" stroke="#ffa938" stroke-width="1.6"/>
   <path d="m857.23 231.15c0.89-0.39 1.79-0.78 2.69-1.18-5.09 5.83-10.38 11.72-13.13 19.09 1.3 34.6-19.88 66.24-13.67 101.55-1.8 22.73 6.52 45.3 16.54 65.53-5.29 0.65 3.55 9.48 2.13 14.05-8.15-15.7-14.36-32.37-19.61-49.24-8.25-32.57-4.4-66.83-1.37-99.85-1.17-13.25-9.78-30.41 4.75-39.64 5.92-7.63 15.8-7.65 21.67-10.31m-8.81 4.32c-10.62 4.23-23.71 14.18-19.12 27.17 6.42 17.87-1.96 36.86 1.49 54.59 2.16-16.24 6.44-32.15 12.08-47.48-4.03-11.66 2.67-25.79 5.55-34.28z" fill="#970500" stroke="#970500" stroke-width="1.6"/>
   <path d="m848.42 235.47c-2.88 8.49-9.58 22.62-5.55 34.28-5.64 15.33-9.92 31.24-12.08 47.48-3.45-17.73 4.93-36.72-1.49-54.59-4.59-12.99 8.5-22.94 19.12-27.17z" fill="#ed1a04" stroke="#ed1a04" stroke-width="1.6"/>
   <path d="m833.12 350.61c5.42 28.33 10.17 59.01 30.76 80.86-1.85 5.75-1.46 12.06-4.05 17.51-1.41 2.44-1.96 5.23-2.12 8.01-5.85-9.72 4.36-16.61 5.06-25.44-3.71-1.19-3.73 4.63-6.75 5.76-2.4-0.92-3.68-3.06-3.91-5.54 12.41 8.9 1.78-11.63-2.45-15.63-10.02-20.23-18.34-42.8-16.54-65.53z" fill="#7f0b00" stroke="#7f0b00" stroke-width="1.6"/>
   <path d="m1171.2 363.15c2.17-5.01 7.49-14.56 14.31-9.83 12.4 6.75 11.18 26.09 0.81 34.1-5.55 2.7-10.75 6.17-16.5 8.4-12.98 2.02-12.37 18.75-21.86 25.14-2.76 1.89-6.97 9.41-8.24 2.79 5.21-14.16 6.85-29.71 14.48-43.04 7.99 3.32-2.26 9.26-1.94 13.08 9.48 0.95 9.34-11.07 6.91-17.5 5.49-10.56 18.92-7.08 28.69-6.38 1.36-8.23-13.52-4.26-16.66-6.76z" fill="#ffa53a" stroke="#ffa53a" stroke-width="1.6"/>
   <path d="m795.54 354.24c5.22-3.47 11.73 4.62 11.08 9.45-4.67 0.7-12.75-0.77-11.6 6.32 14.49-6.39 28.71 4.4 28.14 19.51 8.81 5.22 17.31 20.82 9.02 26.67-1.29 0.22-2.57 0.43-3.84 0.64-3.48-13.87-16.06-22.32-28.48-27.65-13.48-5.26-15.34-26.37-4.32-34.94z" fill="#fea439" stroke="#fea439" stroke-width="1.6"/>
   <path d="m1064.4 370.17c13.06-0.21 25.58-5.36 38.72-6.12 5.62-2.65 4.69 2.23 5.09 4.9-4.71-3.33-10.83-1.6-15.59 0.76-9.91-0.53-3.73 13.05-9.73 18.33-2.35 2.27-4.63 4.58-6.98 6.83-7.46 6.55-18.12 3.47-27.1 3.52 0.42-3.03-0.65-5.42-3.73-6.22-4.81-3.59-6.96-9.25-7.82-15.01-6.38-0.26-12.91-0.81-19.13 0.88-2.55 1.73-7.01-0.7-4.55-3.79 16.92-0.89 34.23-0.28 50.82-4.08m15.41 2.95c-4.65-0.94-19.44-1.28-11.25 5.04-6.95 12.21-17.33-9.51-26.47-0.04 0.63 16.1 24.51 22.7 34.7 10.68 5.49-1.57 8.64-18.26 3.02-15.68z" fill="#020000" stroke="#020000" stroke-width="1.6"/>
   <path d="m873.06 369.68c-1.39-6.23 8.94-2.98 10.91-1.74-12.09-5.34-11.8 7.2-0.15 4.09-9.9 3.01 11.56 22.08 17.54 17.86 3.31 2.17 1.06 7.19 5.91 7.77-15.28-2.29-26.52-15.53-34.21-27.98z" fill="#6c3d0a" stroke="#6c3d0a" stroke-width="1.6"/>
   <path d="m883.82 372.03c-11.65 3.11-11.94-9.43 0.15-4.09 27.66 4.87 55.71 6.35 84 6.1 2.55-0.53 2.15 2.21 2.5 3.89-1.56 0.61-3.23 0.44-4.85 0.35-7.89-0.13-21.08-4.46-19.9 7.39-3.63 7.53-9.6 13.55-17.91 15.55-7.35 1.28-13.96-0.93-20.54-3.56-4.85-0.58-2.6-5.6-5.91-7.77-5.32-8.88-1.13-21.87-17.54-17.86m18.48 4.04c-3.49 19.76 26.56 28.53 36.89 12.98 2.38-2.35 6.7-10.9 0.86-11.16-4.03 0.82-12.21-2.52-13.16 2.15 1.84 6.75-9.7 4.68-10.73-0.18-1.37-6.46-9.35-3.41-13.86-3.79z" fill="#040000" stroke="#040000" stroke-width="1.6"/>
   <path d="m1092.7 369.71c4.76-2.36 10.88-4.09 15.59-0.76-3.28 12.19-15.12 20.76-26.25 24.99 0.64-1.33 1.28-2.66 1.95-3.97 8.74-4.81 18.64-11.58 21.1-21.93-4.15 0.53-8.22 1.39-12.39 1.67z" fill="#5b2d01" stroke="#5b2d01" stroke-width="1.6"/>
   <path d="m1092.7 369.71c4.17-0.28 8.24-1.14 12.39-1.67-2.46 10.35-12.36 17.12-21.1 21.93-0.26-0.48-0.76-1.45-1.02-1.93 6-5.28-0.18-18.86 9.73-18.33z" fill="#fff" stroke="#fff" stroke-width="1.6"/>
   <path d="m1013.4 373.22c17-1.03 34.02-1.65 51-3.05-16.59 3.8-33.9 3.19-50.82 4.08-2.46 3.09 2 5.52 4.55 3.79 5.88 7.01 17.71 18.41 26.95 14.13 3.08 0.8 4.15 3.19 3.73 6.22-13.75-1.44-25.71-9.43-34.93-19.33-2.21-1.02-3.06-4.78-0.48-5.84z" fill="#673d0c" stroke="#673d0c" stroke-width="1.6"/>
   <path d="m901.36 389.89c-5.98 4.22-27.44-14.85-17.54-17.86 16.41-4.01 12.22 8.98 17.54 17.86z" fill="#fff" stroke="#fff" stroke-width="1.6"/>
   <path d="m1079.8 373.12c5.62-2.58 2.47 14.11-3.02 15.68 2.43-3.89 4.93-8.31 3.34-13.03-0.08-0.66-0.24-1.99-0.32-2.65z" fill="#860102" stroke="#860102" stroke-width="1.6"/>
   <path d="m1068.6 378.16c-8.19-6.32 6.6-5.98 11.25-5.04 0.08 0.66 0.24 1.99 0.32 2.65-3.52 2.06-7.65 2.01-11.57 2.39z" fill="#fffdf7" stroke="#fffdf7" stroke-width="1.6"/>
   <path d="m902.3 376.07c4.51 0.38 12.49-2.67 13.86 3.79 1.03 4.86 12.57 6.93 10.73 0.18 3.24 3.53 12.62 4 13.16-2.15 5.84 0.26 1.52 8.81-0.86 11.16-10.33 15.55-40.38 6.78-36.89-12.98z" fill="#c20000" stroke="#c20000" stroke-width="1.6"/>
   <path d="m1068.6 378.16c3.92-0.38 8.05-0.33 11.57-2.39 1.59 4.72-0.91 9.14-3.34 13.03-10.19 12.02-34.07 5.42-34.7-10.68 9.14-9.47 19.52 12.25 26.47 0.04z" fill="#c00000" stroke="#c00000" stroke-width="1.6"/>
   <path d="m1018.2 378.04c6.22-1.69 12.75-1.14 19.13-0.88 0.86 5.76 3.01 11.42 7.82 15.01-9.24 4.28-21.07-7.12-26.95-14.13z" fill="#fffffe" stroke="#fffffe" stroke-width="1.6"/>
   <path d="m926.89 380.04c0.95-4.67 9.13-1.33 13.16-2.15-0.54 6.15-9.92 5.68-13.16 2.15z" fill="#fffffe" stroke="#fffffe" stroke-width="1.6"/>
   <path d="m945.72 385.67c-1.18-11.85 12.01-7.52 19.9-7.39-2.6 10.5-14.29 14.26-23.3 18.11-1.41-3.65 3.15-6.9 3.4-10.72z" fill="#fff" stroke="#fff" stroke-width="1.6"/>
   <path d="m965.62 378.28c1.62 0.09 3.29 0.26 4.85-0.35-5.18 12.94-19.44 20.04-32.46 22.05 0.83-1.83 2.57-2.78 4.31-3.59 9.01-3.85 20.7-7.61 23.3-18.11z" fill="#643a08" stroke="#643a08" stroke-width="1.6"/>
   <path d="m825.95 384.26c8.32 2.21-0.19 9.91 0 0z" fill="#876436" stroke="#876436" stroke-width="1.6"/>
   <path d="m927.81 401.22c8.31-2 14.28-8.02 17.91-15.55-0.25 3.82-4.81 7.07-3.4 10.72-1.74 0.81-3.48 1.76-4.31 3.59-2.75 1.91-7.61 3.32-10.2 1.24z" fill="#c79b7a" stroke="#c79b7a" stroke-width="1.6"/>
   <path d="m1076 394.87c2.35-2.25 4.63-4.56 6.98-6.83 0.26 0.48 0.76 1.45 1.02 1.93-0.67 1.31-1.31 2.64-1.95 3.97-1.69 1.57-4 2.12-6.05 0.93z" fill="#cb9a73" stroke="#cb9a73" stroke-width="1.6"/>
   <path d="m1139.9 396.3c0.92-3.09 4-11.39 5.28-4.37-3.68 13.56-7.4 27.32-13.03 40.2 2.51-11.31 6.65-22.14 9.82-33.25 3.72-6.59-0.12-3.34-2.07-2.58z" fill="#9e0c00" stroke="#9e0c00" stroke-width="1.6"/>
   <path d="m1117.6 429.86c9.35-10.35 15.05-23.27 19.96-36.16 0.65 1.12 1.35 2.23 2.05 3.34-3.86 12.05-10.46 22.9-17.46 33.34-0.83 5.45 6.53 10.72 9 3.81-1.51 11.1-10.11 1.71-13.32-3.6l-0.23-0.73z" fill="#850200" stroke="#850200" stroke-width="1.6"/>
   <path d="m1139.9 396.3c1.95-0.76 5.79-4.01 2.07 2.58-3.17 11.11-7.31 21.94-9.82 33.25-0.26 0.51-0.77 1.55-1.02 2.06-2.47 6.91-9.83 1.64-9-3.81 7-10.44 13.6-21.29 17.46-33.34l0.31-0.74z" fill="#dc210a" stroke="#dc210a" stroke-width="1.6"/>
   <path d="m1148 420.96c9.49-6.39 8.88-23.12 21.86-25.14-15.98 7.21-12.22 27.58-23.15 38.02-8.89 4.97-12.07-4.52-6.95-10.09 1.27 6.62 5.48-0.9 8.24-2.79z" fill="#f28017" stroke="#f28017" stroke-width="1.6"/>
   <path d="m989.19 405.91c5.78 5.02 2.39 19.16 3.84 26.97-3.04 0.47-10.86-4.64-8.2 1.18-7.79-5.01 3.97-19.51 4.36-28.15z" fill="#f98512" stroke="#f98512" stroke-width="1.6"/>
   <path d="m828.34 416.83c1.27-0.21 2.55-0.42 3.84-0.64 1.38 2.72 5.79 2.85 5.91 6.73-11.04-4.51-12.16 28.54-5.36 8.94-5.11 13.79-2.25 29.49 6.19 41.27 3.32 2.55 3.52-2.68 4.26-4.8 6.63-5.1 0.73-16.97 7.91-20.24 0.78 1.93 0.78 4.04 0.91 6.1-1.26-12.3-9.36 20.44-1.5 17.3-1.25 2.73-2.55 5.49-4.34 7.91-24.95-1.46-24.63-31.95-24.03-50.54 0.75-2.17 1.77-4.23 2.67-6.33 0.91 5.35 5.97-2.91 3.54-5.7z" fill="#676865" stroke="#676865" stroke-width="1.6"/>
   <path d="m851.79 430.19c1.42-4.57-7.42-13.4-2.13-14.05 4.23 4 14.86 24.53 2.45 15.63-0.08-0.4-0.24-1.18-0.32-1.58z" fill="#d62111" stroke="#d62111" stroke-width="1.6"/>
   <path d="m832.73 431.86c-6.8 19.6-5.68-13.45 5.36-8.94-0.6 3.55-2.86 6.49-5.36 8.94z" fill="#a78c7f" stroke="#a78c7f" stroke-width="1.6"/>
   <path d="m838.36 428.09c5.13-1.98 5.52 9.61 0.04 6.63-4.29-0.04-1.21-4.58-0.04-6.63z" fill="#c58d46" stroke="#c58d46" stroke-width="1.6"/>
   <path d="m822.13 428.86c-0.6 18.59-0.92 49.08 24.03 50.54-17.87 12.2-22.86-20.25-26.72-26.17-1.4-8.16-0.3-16.7 2.69-24.37z" fill="#2e2e2e" stroke="#2e2e2e" stroke-width="1.6"/>
   <path d="m993.03 432.88c3.96 0.67 6.79-3.32 10.68-2.92-2.25 7.03-13.01 8.8-18.88 4.1-2.66-5.82 5.16-0.71 8.2-1.18z" fill="#6d1200" stroke="#6d1200" stroke-width="1.6"/>
   <path d="m1123.8 456.52c-4.34-8.15-8.33-18.08-6.19-26.66l0.23 0.73c-2.57 10.11 15.81 21.95 5.96 25.93z" fill="#743505" stroke="#743505" stroke-width="1.6"/>
   <path d="m842.3 441.14c4.08-0.11 5.5 5.07 8.79 6.95-7.18 3.27-1.28 15.14-7.91 20.24 3.24-8.91 1.12-18.28-0.88-27.19z" fill="#3c3e36" stroke="#3c3e36" stroke-width="1.6"/>
   <path d="m857.71 456.99c0.16-2.78 0.71-5.57 2.12-8.01 2.76 33.33 36.67 53.17 65 63.2-1.29 4.74 9.56 6.91 5.11 9.06-15.57-8.76-34.02-11.67-47.99-23.34-11.62-11.14-18.68-26.01-24.24-40.91z" fill="#f0801d" stroke="#f0801d" stroke-width="1.6"/>
   <path d="m850.5 471.49c-7.86 3.14 0.24-29.6 1.5-17.3-0.05 5.75 0.74 11.87-1.5 17.3z" fill="#9b9999" stroke="#9b9999" stroke-width="1.6"/>
   <path d="m1034.7 468.58c4.25-3.68 7.16 1.29 2.85 2.01-24.32 8.5-50.57 11.7-76.27 11.52-3.42 0.27-3.29-8.83 2.76-3.33 24 1.44 47.64-4.11 70.66-10.2z" fill="#711f00" stroke="#711f00" stroke-width="1.6"/>
   <path d="m1117.7 477.8c1.2-1.54 2.2-4.42 4.53-2.71-5.4 12.09-13.77 23.01-25.11 30.04-2.52 0.61-4.72 5.34-0.99 5.79 31.75 6.41 51.3 35.16 66.71 61.2 12.49 17 23.02 35.68 29.04 55.98 2 8.59 13.53 11.71 13.54 21.34 0.81 3.62-1 8.5 2.43 11.07 14.99 4.14 30.69-5.57 36.61-19.26 15.56-5.85 24.57 17.55 16.49 28.61-5.18 12.28-20.97 11.99-28.94 21.49 3.14 15.02 13.61 28.65 9.29 44.85 0.08 12.61-10.83 21.13-22.86 20.94-4.52 9.99-15.58 15.21-25.38 9.02-7.31 7.26-16.74 1.72-25.52 4.44-19.91 2.48-29.74-32.61-14.69-41.58-7.42-8.38-17.65-15.72-18.98-28.01-1.82-14.07-15.4-22.27-20.99-34.79 0.91-2.69-5.91-6.33-4.98-2.14 0.75 13.59-0.23 27.78-6.98 39.89-13.22 14.32 10.73 27.07 9.9 42.34 11.85 19.11 6.79 43.78 19.08 62.78 12.01 17.96 17.53 39.4 17.76 60.81 17.31 18.74 38.5 33.8 55.22 53.16 6.97 5.22 5.38 27.32 1.36 8.92-4.87-9.84-13.72-20.37-24.55-23.6 3.79-4.72-4.94-5.84-5.76-10.19l-0.58-0.51c-2.78-2.65-6.89-2.22-10.25-3.52 6.34-0.93-0.49-5.77-3.27-7.01-0.85-1.42-1.64-2.85-2.57-4.18-1.42-1.1-2.95-2.01-4.46-2.92-1.07-0.73-2.11-1.47-3.14-2.19 0.05-4.56-4.66-3.82-7.92-2.92-26.89 9.52-61.13 10.5-91.76 11.11-13.71-7.19-12.48 9.92-13.85 18.15-0.65 11.19-3.11 23.18 1.23 33.87-0.51 1.04-1.01 2.09-1.51 3.15-9.77-13.17-3.92-36.99 0.7-53.61 1.95-6.71-9.23-2.61-9.69-8.54-7.87-15.93-10.63-35.96-25.68-46.62 1-7.09 2.99-20.42-8.92-16.6-10.83-2.05-6.92 9.88-7.59 15.99-15.46 12.69-17.7 34.63-27.32 50.68-2.87 0.86-9.8 0.27-7.95 5.06 6.61 17 4.91 35.54 3.47 53.33-1.22 0.06-2.43 0.04-3.63-0.08-0.09-0.66-0.28-2-0.38-2.67 3.55-17.39 2.97-36.12-3.55-52.74-12.03-0.14-24.06 1.2-36.09 0.46-17.38-2.64-35.16-2.3-52.12-7.5-2.69-0.32-12.09 4.85-7.56 0.21 5.98-2.36-4.1-3.8-6.9-4.69-2.04-0.33-4.62 0.01-5.7 2.01-1.06 1.56-2.08 3.24-3.83 4.13-2.2 1.04-3.88 2.81-5.26 4.77-1.24 1.13-2.45 2.28-3.7 3.39-1.16 0.65-2.31 1.31-3.42 2.03-3.02 3.19 2.14 3.61 3.49 5.64-3.96 0.38-9.04-0.8-12.24 2.33-1.73 2.79-10.45 9.25-3.97 10.01-11.95 1.24-20.46 11.59-25.41 21.72-0.24 0.57-0.73 1.7-0.98 2.27-1.33 2.51-0.61 8.97-4.68 8.54 5.49-34.3 46.47-46.67 62.85-74.2-1.16-21.7 6.58-42.51 18.29-60.41 8.97-15.12 6.96-33.36 12.54-49.47 1.34-4.96 9.2-11.94 0.66-13.92 2.93-10.21 12.3-18.94 14.48-29.45-9.93-15.36-12.43-33.39-11.79-51.3-10.08 8.22-15.37 22.19-24.33 31.97 0.03 14.5-9.25 26.01-20.28 34.25 16.38 10.23 4.11 48.93-17.85 41.44-7.42-0.08-16.27 3.26-21.97-3.33-15.76 10.92-22.98-11.51-36.18-11.22-22.52-13.97-10.64-43.28-2.6-62.81-4.04-7.73-14.41-8.06-20.79-13.22-12.82-6.82-15.01-26.78-4.02-36.19 3.83-3.07 12.17-4.63 13.99 1.19 5.31 12.73 22.86 21.37 35.38 15.2 0.67-10.04 3.66-19.83 12.39-25.68 8.1-21.53 17.08-43.07 31.59-61.26 15.51-27.59 37.32-56.45 70.36-62.57 0.24-5.19-6.81-6.43-9.83-9.83 0.68-0.68 1.38-1.36 2.09-2.03 13.97 11.67 32.42 14.58 47.99 23.34 15.55 7.35 28.73 18.44 42.83 27.99 24.23 9 46.77-1.67 64.25-18.06 25.58-20.25 66.02-20.01 80.71-53.37m-235.44 38.74c-10.63-1.57-16.7 10.22-24.47 15.35-4.41-0.01-7.91 3.5-9.73 7.23-21.67 24.75-39.74 53.49-52.45 83.99-2.07 1.53 0.12 5.67 0.33 8.39-0.03 0.41-0.1 1.25-0.14 1.67-4.8 1.45 1.38 6.13 4.3 6.45 1.27 2.67 5.61 3.55 6.73 0.28 3.74-7.98 6.83-16.28 10.91-24.11 3.3 0.23 3.69-7.7 6-4.59-8.33 20.57-20.92 39.86-28.7 60.51 13.6 7.9 29.82 12.36 43.94 20.08 1.68 0.92 3.54 2.52 5.59 2 13.51-16.7 26.33-34.33 35.31-53.9 1.74-5.86 6.2-11.69 7.71-17.68-14.87-32.34-13.22-71.32 4.33-102.29-6.41 1.79-8.7 12.92-16.18 11.1 6.4-6.19 10.82-14.67 19.95-17.4-1.87-4.5-10.51-0.71-13.43 2.92m210.31 1.03c-0.67 2.28-2.43 5.61 0.27 7.22 16.21 29.49 15.32 65.97 2.31 96.46 0.41 6.15 4.42 12.47 6.48 17.64 9.81 18.95 21.53 36.99 35.11 53.46 1.32 3.17 4.38 0.55 6.25-0.38 14.03-7.52 29.4-12.25 43.51-19.59-5.25-19.59-17.41-38.39-26.88-56.1-0.98-2.15-0.22-5.22 2.6-3.6 4.51 8.96 10.47 17.15 12.91 27.12 0.88 3.53 5.25 2.19 6.67-0.19 3.29-0.71 7.56-2.19 6.13-6.44-0.76-3.4 1.13-7.67-1.88-10.24-12.24-31.45-31.76-60.88-53.88-86.19-0.89-3.72-3.68-3.73-6.56-2.26-7.27-6.94-14.41-18.9-25.75-18.1-4.34-7.78-19.37-3.45-7.29 1.19m-189.34 2.15c4.6 24.2 35.34 26.04 55.2 27.81-1.59-5.89-12.28-9.89-17.5-14.22-11.28-8.04-24.05-13.89-37.14-18.24-2.89-0.63-1.54 3.34-0.56 4.65m139.71 13.76c-4.99 2.43-26.57 15.24-11.72 13.88 17.38-3.42 43.36-5.18 47.84-26.33 0.68-1.85 0.87-3.84 0.76-5.79-12.85 4.78-25.87 9.89-36.88 18.24m-147.21-11.78c-17.67 28.5-17.76 65.15-6.01 95.57 5.75 8.64-4.95 16.6-5.92 25.42-8.19 20.48-8.7 44.96 3.43 64.05 6.83 11.09-6.13 21.44-9.7 31.52-0.08 0.39-0.25 1.18-0.33 1.57 34.97-0.35 69.81-0.85 104.81 0.02 10.17 3.86 8.11-15.37-1.02-11.95-21.89-3.8-43.27-6.35-65.17-8.51-5.03-3.65-15.33 1.97-16.76-5.43 18.39 0.27 36.55 4.18 54.75 6.15 10.71 2.68 21.92 2.92 32.88 3.73 3.48-4.73-9.25 0.71-8.06-6.43-3.16-8.81 12.37-3.37 9.88-10.4 1.6-6.05-10.98-0.05-9.33-7.23-2.5-7.47 8.34-2.74 9.78-6.92 3.24-9.52-7.91-2.43-9.9-8.09-4.12-11.01 17.34-3.36 9.7-14.64-5.36 2.09-12.33-0.39-8.55-6.79l1.92-1.16c10.27 0.27 7.17-11.8-3.26-9.42-4.85-11.95 11.71-5.31 10.08-13.46-2.59-3.07-10.15 0.09-10.08-5.38-4.24-10.97 16.55-3.07 9.01-12.76-12.56 3.92-10.9-15.41 0.9-10.39 5.69-11.89-14.49-2.28-9.68-14.24 1.63-5.31 9.03-0.54 9.83-4.85 2.98-8.62-9.25-1.5-10.04-7.92-4.1-10.81 15.5-2.55 9.41-12.7-4.39 0-8.63-1.31-11.02-5.67-15.45-2.59-30.84-6.95-43.9-15.92-15.38-3.39-34.26-12.54-35.4-30.41-1.52-0.78-1.68 1.79-2.25 2.64m188.16 2.13c-4.58 15.87-22.59 22.36-37.07 26.94-12.39 7.8-26.55 12.71-41.1 14.38-0.47 10.22-17.19 0.63-10.63 11.65 12.17-4.22 10.83 14.91-0.37 10.97-4.94 10.23 8.67 1.91 9.24 9.59 3.78 9.58-11.6 3.29-9.66 10.4-0.75 5.96 9.21-0.14 9.67 6.49 4.16 10.78-16.52 2.9-8.89 12.6 12.66-4.3 10.31 15.8-0.87 11.47-4.44 10.17 8.94 1.87 9.52 9.2 3.04 7.45-6.11 6.13-9.73 7.7-2.71 5.53 3.37 6.61 6.94 7.07 0.56 0.21 1.69 0.64 2.26 0.85 3.65 7.25-4.08 8.84-8.99 6.96-3.84 4.4 2.59 10.73 7.9 8.57 6.64 5.9-3.26 10.26-7.67 9.16-6.51 12.15 15.3 2.61 9.02 14.34-0.8 5.15-9.49-0.45-9.06 4.88-2.87 8.3 14.61 0.34 9.28 11.41-0.02 6.61-9.98-0.28-9.58 5.55 11.07-2 23.3 0.13 33.73-4.27 18.46-0.44 39.37-8.2 56.12-3.86-28.77 7.28-59.89 6.29-88.6 13.47-1.26 3.11-2.31 8.24 1.29 10.14 33.32 0.19 67.12 0.16 100.6 0.41 2.88 0.13 9.85 1.41 7.02-3.08-4.03-9.98-17.98-21.17-8.24-31.79 11.62-18.62 9.08-42 3.12-62.17-1.34-8.85-12.82-16.56-7.12-25.71 13.69-30.43 11.34-68.44-6.44-97.03-2.33-0.27-1.7 2.22-1.69 3.71m-99.77 40.07c-0.92 5.5 15.74 5.6 14.72 0.04l-14.72-0.04m1.15 16.2c-5.99 6.11 16.92 6.33 13.04 0.73-4.18-0.77-8.71-0.02-13.04-0.73m-1.29 17.9c0.15 5.5 11.3 0.22 14.98 2-0.18-5.52-11.35-0.25-14.98-2m0.49 16.14c-5.08 4.72 10.98 2.67 13.02 2.76 6.01-5.5-10.51-2.27-13.02-2.76m-0.41 16.88c-1.28 7.07 11.05 1.14 14.8 3.12 0.46-6.49-11.28-1.66-14.8-3.12m-195.73 7.39c-12.29 6.53-9.14 22.27 5.52 22.64 3.49-4.51 5.62-10.63 8.06-15.88-4.67-1.8-8.94-5.93-13.58-6.76m403.83-0.06c-3.67 2.96-8.05 4.57-12.1 6.81 1.14 5.67 6.7 9.72 6.85 15.59 4.88-2.03 10.02-3.21 14.96-5.15 0.96-6.96-2.59-15.29-9.71-17.25m-461.9 36.57c5.64 5.97 16.85 6.64 22.41 13.68 1.32 12.96-9.21 23.2-8.83 36.28-0.6 2.93-1.84 6.42-0.18 9.21 0.83 4.64 2.04 9.46 4.87 13.32 3.15 5.07 10.71 8.25 15.62 3.64 4.72-0.64 1.81 6.77 4.76 7.68 3.67 3.99 8.91 9.82 14.84 6.22 4.97-2.7 7.78-3.38 11.22 1.24 1.5 0.39 3.06 0.74 4.64 0.67 3.27-0.94 7.52-0.48 10.22-2.95 0.96 0.8 1.97 1.55 3.02 2.26 10.38 5.88 22.16-10.14 18.71-18.06 2.46-1.12 4.59-7.31 1.58-8.09-0.29-1.57 0.7-3.92-0.81-4.91-1.24-2.04-4.53-2.92-6.49-1.3-1.87 2.21-4.47 2.49-4.73-0.94-1.52-4.39 3.57-4.2 4.62-7.06 7.12-7.26 23.28-16.01 17.57-26.55-9.01-4.22-18.58-7.81-27.75-12.14-1.88-1.92-6.62-2.53-9.59-4.19-10.63-6.85-28.93-8.02-34.31-18.84-15.08 3.13-29.04-6.88-35.19-19.9-17.01-3.75-19.11 24.87-6.2 30.73m515.46-30.53c-3.41 9.96-13.31 16.82-23.12 19.62-4.89 1.88-17.04-4.49-14.9 5.35-9.82 4.5-19.6 8.72-29.46 13.08-3.3-0.37-5.71 2.46-8.45 3.82-8.41 7.69-34.92 5.72-30.99 20.44 3.41 8.89 11.38 15.69 19.58 20.17 0.21 0.24 0.64 0.72 0.85 0.97 2.02 2.36 1.51 5.78 0.11 8.35-0.55-0.95-1.29-1.59-2.23-1.92-2.7-1.89-6.37-1.5-7.27 2.06-2.42 6.81 0.82 14.6 2.11 20.52 0.32 1.2 0.87 2.41 1.81 3.29 5.29 13.73 15.47 2.64 23.24 5.96 3.37 1.65 7.46 1.06 10.98 0.1 4.54-9.9 16.13 6.85 21.78-3.33 1.26-0.68 2.87-1.53 2.98-3.17 4.26 0.07 0.62-10.85 5.45-7.98 2.24 2.56 8.71 3.2 9.43 0.39 3.85-1.24 7.24-4.39 8.25-8.37 0.66-2.04 1.31-4.09 1.94-6.14 3.22-3.87 1.98-15.55-0.84-19.44-0.21-10.43-9.13-18.55-7-29.23 3.73-7.51 15.08-6.93 19.63-12.09 15.3-4.42 14.67-36.44-3.88-32.45m-261.74 3.61c0.15 5.5 11.3 0.22 14.98 2-0.18-5.52-11.35-0.25-14.98-2m-197.75 21.25c0.57 7.09 9.35-2.41 5.72-5.65-4.18-2.74-7.37 7.8-5.09-1.49-7-4.47-9.01 11.5-0.63 7.14m407.28-3.88c-1.66-3.46-6.74-0.36-3.91 2.74-0.11 3.82 7.3 6.25 6.3 1.29 4.78 1.34 6.05-2.2 3.83-8.23-4.99-2.33-1.91 6.24-6.22 4.2m-207.34-1.04c-8.17 4.77 12.05 6.26 12.94 1.73-3.82-2.24-8.74-1.15-12.94-1.73m-2.19 17.67c0.15 5.5 11.3 0.22 14.98 2-0.18-5.52-11.35-0.25-14.98-2m0.14 15.9c-0.92 5.5 15.74 5.59 14.72 0.04l-14.72-0.04m-0.03 17.12c-0.63 6.23 11.29 2.57 15.07 2-2.06-4.54-11-0.88-15.07-2m-103.34 30.27c-14.53 18-8.53 43.26-19.84 62.66-11.05 19.01-21.36 39.83-16.83 62.66 21.17 7.16 43.62 9.48 65.97 10.57 0.41-0.08 1.22-0.24 1.62-0.31 14.57 0.08 29.75 0.68 43.99-2.11 6.22-13.62 11.17-27.84 17.69-41.31 10.3-2.96 8.88-15.69 5.65-21.4-2.43-4.11 2.82-1.06 4.79-2.97 6.11-1.21 12.32-1.38 18.49-0.13-0.21 2.42 4.6 0.36 5.71 2.81-5.8 1.01-1.11 10.25-2.8 14.62 13.35 9.73 15.07 27.8 22.59 41.67 0.8 2.73 1.49 5.65 3.57 7.8 30.94 2.97 64.01 2.55 93.62-4.92 6.31 0.02 11.67-3.91 17.97-4.22 3.83-24.68-8.36-46.42-19.46-67.17-9.52-18.4-4.02-41.92-18.05-58.35-33.42-0.99-68.53-4.05-101.11 1.33-6.71-4.08-15.82-3.67-22.65-0.11-33.14-4.5-67.43-2.52-100.92-1.12z" fill="#010001" stroke="#010001" stroke-width="1.6"/>
   <path d="m1016.6 489.37c13.37 2.85-30.35 14.84-26.85 4.2 8.84-1.29 18.57 0.18 26.85-4.2m-25.49 4.63c1.28 4.76 11.54 1.58 16.14 0.88-3.42-3.18-11.49 0.2-16.14-0.88z" fill="#772500" stroke="#772500" stroke-width="1.6"/>
   <path d="m991.07 494c4.65 1.08 12.72-2.3 16.14 0.88-4.6 0.7-14.86 3.88-16.14-0.88z" fill="#550900" stroke="#550900" stroke-width="1.6"/>
   <path d="m1016.6 499.58c9.37-6.5 6.49 21.2-1.69 12.71-3.85-6.7-15.65-3.78-17.91-10.19 6.1-2.23 13.14-1.29 19.6-2.52z" fill="#fb830f" stroke="#fb830f" stroke-width="1.6"/>
   <path d="m882.29 516.54c2.92-3.63 11.56-7.42 13.43-2.92-9.13 2.73-13.55 11.21-19.95 17.4-25.72 23.11-41.35 55.07-58 84.77-4.08 7.83-7.17 16.13-10.91 24.11-1.12 3.27-5.46 2.39-6.73-0.28 20.67-44.35 44.51-90.4 82.16-123.08z" fill="#fffefe" stroke="#fffefe" stroke-width="1.6"/>
   <path d="m924.83 512.18c11.43 4.82 23.92 5.63 36.13 6.61 12.46 2.66 3.98 22.29 18 24.49 14.25 3.19 36.63 3.51 43.58-10.72-1.04-13.56 7.97 0.08 14.48-1.39-17.48 16.39-40.02 27.06-64.25 18.06-14.1-9.55-27.28-20.64-42.83-27.99 4.45-2.15-6.4-4.32-5.11-9.06z" fill="#f57d11" stroke="#f57d11" stroke-width="1.6"/>
   <path d="m1092.6 517.57c-12.08-4.64 2.95-8.97 7.29-1.19 38.35 32.11 60.52 79.24 81.94 123.23-1.42 2.38-5.79 3.72-6.67 0.19-2.44-9.97-8.4-18.16-12.91-27.12-17.64-35.24-39-69.9-69.65-95.11z" fill="#fffefe" stroke="#fffefe" stroke-width="1.6"/>
   <path d="m903.26 519.72c-0.98-1.31-2.33-5.28 0.56-4.65 13.09 4.35 25.86 10.2 37.14 18.24-14.09 1.55-26.42-6.1-37.7-13.59z" fill="#2f2b40" stroke="#2f2b40" stroke-width="1.6"/>
   <path d="m1043 533.48c11.01-8.35 24.03-13.46 36.88-18.24 0.11 1.95-0.08 3.94-0.76 5.79-11.61 5.34-22.5 13.67-36.12 12.45z" fill="#2d2c3e" stroke="#2d2c3e" stroke-width="1.6"/>
   <path d="m857.82 531.89c7.77-5.13 13.84-16.92 24.47-15.35-37.65 32.68-61.49 78.73-82.16 123.08-2.92-0.32-9.1-5-4.3-6.45-0.52 1.89 1.39 5.52 2.65 2.4 15.6-33.39 34.37-65.26 56.06-95.04 1.2-1.36 2.46-2.97 1.47-4.82 0.57-1.29 1.17-2.57 1.81-3.82z" fill="#570801" stroke="#570801" stroke-width="1.6"/>
   <path d="m1099.9 516.38c11.34-0.8 18.48 11.16 25.75 18.1 2.24 2.66 4.59 5.3 6.53 8.21-3.79-1.68-0.71 2.43 0.1 4.05 19.81 28.5 37.42 58.54 52.19 89.96 2.56 0.88 2.73-1.31 2.71-3.28l0.79-0.25c1.43 4.25-2.84 5.73-6.13 6.44-21.42-43.99-43.59-91.12-81.94-123.23z" fill="#5d0801" stroke="#5d0801" stroke-width="1.6"/>
   <path d="m1092.6 517.57c30.65 25.21 52.01 59.87 69.65 95.11-2.82-1.62-3.58 1.45-2.6 3.6-17.08-30.54-34.13-66.15-63.08-90.86-0.71-1.56-3.56-3.54-3.7-0.63-2.7-1.61-0.94-4.94-0.27-7.22z" fill="#040308" stroke="#040308" stroke-width="1.6"/>
   <path d="m895.76 521.7c0.57-0.85 0.73-3.42 2.25-2.64 1.14 17.87 20.02 27.02 35.4 30.41 13.06 8.97 28.45 13.33 43.9 15.92 2.39 4.36 6.63 5.67 11.02 5.67 6.09 10.15-13.51 1.89-9.41 12.7 0.79 6.42 13.02-0.7 10.04 7.92-0.8 4.31-8.2-0.46-9.83 4.85-4.81 11.96 15.37 2.35 9.68 14.24-11.8-5.02-13.46 14.31-0.9 10.39 7.54 9.69-13.25 1.79-9.01 12.76-0.07 5.47 7.49 2.31 10.08 5.38 1.63 8.15-14.93 1.51-10.08 13.46 10.43-2.38 13.53 9.69 3.26 9.42 1.28-1.41 3.53-4.67-0.15-5.09-10.79-4.78-23.6-14.86-34.54-13.57 10.01 6.77 21.19 16.14 32.77 19.82-3.78 6.4 3.19 8.88 8.55 6.79 7.64 11.28-13.82 3.63-9.7 14.64 1.99 5.66 13.14-1.43 9.9 8.09-1.44 4.18-12.28-0.55-9.78 6.92-1.65 7.18 10.93 1.18 9.33 7.23 2.49 7.03-13.04 1.59-9.88 10.4-1.19 7.14 11.54 1.7 8.06 6.43-10.96-0.81-22.17-1.05-32.88-3.73 3.95-6.86-23.94-1.4-14.19-10.75 8.59-17.25-28.3-19.74-23.05-1.55-12.05 0.92-32.03-2.78-33.69-18.17-2.73-15.8-1.35-32.2 3.24-47.49-0.58 0.13-1.74 0.41-2.32 0.54 0.97-8.82 11.67-16.78 5.92-25.42 6.67-0.32 12.91 1.6 19.07 3.88-22.98-25.31-20.47-63.24-11.49-94.05 0.03-2.18 2.45-7.06-1.57-5.4m13.86 27.58c-9.34 1.26-3.3 18.19 4.98 11.48 7.5-3.76 3.45-14.52-4.98-11.48m9.56 32.96c-8.7 2.44-7.24 17.23 3.22 13.44 8.67-2.66 5.33-13.85-3.22-13.44m-18.81 49.82c-9.86 13.38 2.39 31.44-7.03 45.29 0.96 7.82 5.15 20.17 16.08 15.23 13.83-1.84-5.73-17.9 0.52-26.17 5.29-11.87 4.97-30.03-9.57-34.35z" fill="#181526" stroke="#181526" stroke-width="1.6"/>
   <path d="m875.77 531.02c7.48 1.82 9.77-9.31 16.18-11.1-17.55 30.97-19.2 69.95-4.33 102.29-1.51 5.99-5.97 11.82-7.71 17.68-14.86 15.78-25.84 35.77-40.9 51.9-14.12-7.72-30.34-12.18-43.94-20.08 7.78-20.65 20.37-39.94 28.7-60.51-2.31-3.11-2.7 4.82-6 4.59 16.65-29.7 32.28-61.66 58-84.77m-27.16 66.33c-3.45-0.3-3.3 3.88 0.37 3.71 6.99 1.23 11.28 8.22 16.88 10.78 3.05-9.16-7.09-19.75-17.25-14.49z" fill="#181525" stroke="#181525" stroke-width="1.6"/>
   <path d="m903.26 519.72c11.28 7.49 23.61 15.14 37.7 13.59 5.22 4.33 15.91 8.33 17.5 14.22-19.86-1.77-50.6-3.61-55.2-27.81z" fill="#161524" stroke="#161524" stroke-width="1.6"/>
   <path d="m1083.9 523.83c-0.01-1.49-0.64-3.98 1.69-3.71 17.78 28.59 20.13 66.6 6.44 97.03-6.68-0.61-12.4 2.88-18.72 4.04 24.07-26.38 20.84-65.69 10.59-97.36z" fill="#2f2b42" stroke="#2f2b42" stroke-width="1.6"/>
   <path d="m895.76 521.7c4.02-1.66 1.6 3.22 1.57 5.4-8.98 30.81-11.49 68.74 11.49 94.05-6.16-2.28-12.4-4.2-19.07-3.88-11.75-30.42-11.66-67.07 6.01-95.57z" fill="#2d2b42" stroke="#2d2b42" stroke-width="1.6"/>
   <path d="m1043 533.48c13.62 1.22 24.51-7.11 36.12-12.45-4.48 21.15-30.46 22.91-47.84 26.33-14.85 1.36 6.73-11.45 11.72-13.88z" fill="#171426" stroke="#171426" stroke-width="1.6"/>
   <path d="m1092.9 524.79c0.14-2.91 2.99-0.93 3.7 0.63 28.95 24.71 46 60.32 63.08 90.86 9.47 17.71 21.63 36.51 26.88 56.1-14.11 7.34-29.48 12.07-43.51 19.59-13.84-17.23-28.42-34.05-39.26-53.51-0.52 0.1-1.57 0.32-2.1 0.43-2.06-5.17-6.07-11.49-6.48-17.64 13.01-30.49 13.9-66.97-2.31-96.46m28.98 71.92c-3.56 4.52-7.49 9.94-7.85 15.94 7.91-3.32 14.51-11.41 23.86-12.95 0.28-6.76-11.89-0.95-16.01-2.99z" fill="#181526" stroke="#181526" stroke-width="1.6"/>
   <path d="m1046.8 550.77c14.48-4.58 32.49-11.07 37.07-26.94 10.25 31.67 13.48 70.98-10.59 97.36 6.32-1.16 12.04-4.65 18.72-4.04-5.7 9.15 5.78 16.86 7.12 25.71-5.35 8.54 5.76 30.07 1.17 43.42 0.11 17.35-20.42 21.25-33.82 21.18 3.19-17.45-31.05-15.98-24.46 1.21 9.38 9.4-12.39 4.5-14.2 11.07-10.43 4.4-22.66 2.27-33.73 4.27-0.4-5.83 9.56 1.06 9.58-5.55 5.33-11.07-12.15-3.11-9.28-11.41-0.43-5.33 8.26 0.27 9.06-4.88 6.28-11.73-15.53-2.19-9.02-14.34 4.41 1.1 14.31-3.26 7.67-9.16-5.31 2.16-11.74-4.17-7.9-8.57 4.91 1.88 12.64 0.29 8.99-6.96 11.12-5.95 22.27-12.53 32.82-19.64-10.09-1.03-19.36 5.25-28.3 9.2-2.43 2.11-12.17 5.65-6.78 9.59-3.57-0.46-9.65-1.54-6.94-7.07 3.62-1.57 12.77-0.25 9.73-7.7-0.58-7.33-13.96 0.97-9.52-9.2 11.18 4.33 13.53-15.77 0.87-11.47-7.63-9.7 13.05-1.82 8.89-12.6-0.46-6.63-10.42-0.53-9.67-6.49-1.94-7.11 13.44-0.82 9.66-10.4-0.57-7.68-14.18 0.64-9.24-9.59 11.2 3.94 12.54-15.19 0.37-10.97-6.56-11.02 10.16-1.43 10.63-11.65 14.55-1.67 28.71-6.58 41.1-14.38m23.87-2.59c-9.52 0.68-7.8 13.17 0.39 13.7 8.45 0.35 7.78-13.8-0.39-13.7m-10.98 35.2c-9.79 2.2-3.2 16.33 5.74 12.32 8.16-1.58 1.37-16.37-5.74-12.32m19.75 48.65c-3.59 6.6-13.9 12.29-10.48 20.75 4.83 11.06 4.67 24.42-1.37 34.97-2.5 4.55 4.03 5.56 7.19 4.9 15.28 3.57 16-18.31 9.52-27 1.79-9.87 5.87-29.6-4.86-33.62z" fill="#181526" stroke="#181526" stroke-width="1.6"/>
   <path d="m848.09 539.12c1.82-3.73 5.32-7.24 9.73-7.23-0.64 1.25-1.24 2.53-1.81 3.82-24.64 28.78-42.18 62.61-60.04 95.79-0.21-2.72-2.4-6.86-0.33-8.39 0.35 0.22 1.04 0.67 1.38 0.89 14.55-29.65 31.96-57.95 51.07-84.88z" fill="#1e0000" stroke="#1e0000" stroke-width="1.6"/>
   <path d="m1125.6 534.48c2.88-1.47 5.67-1.46 6.56 2.26 20.85 26.81 36.47 57.24 53.88 86.19 3.01 2.57 1.12 6.84 1.88 10.24l-0.79 0.25c-16.58-31.24-33.16-62.75-55-90.73-1.94-2.91-4.29-5.55-6.53-8.21z" fill="#200" stroke="#200" stroke-width="1.6"/>
   <path d="m795.97 631.5c17.86-33.18 35.4-67.01 60.04-95.79 0.99 1.85-0.27 3.46-1.47 4.82-21.69 29.78-40.46 61.65-56.06 95.04-1.26 3.12-3.17-0.51-2.65-2.4 0.04-0.42 0.11-1.26 0.14-1.67z" fill="#ab2608" stroke="#ab2608" stroke-width="1.6"/>
   <path d="m1132.2 536.74c22.12 25.31 41.64 54.74 53.88 86.19-17.41-28.95-33.03-59.38-53.88-86.19z" fill="#37243a" stroke="#37243a" stroke-width="1.6"/>
   <path d="m795.64 623.11c12.71-30.5 30.78-59.24 52.45-83.99-19.11 26.93-36.52 55.23-51.07 84.88-0.34-0.22-1.03-0.67-1.38-0.89z" fill="#352936" stroke="#352936" stroke-width="1.6"/>
   <path d="m1132.3 546.74c-0.81-1.62-3.89-5.73-0.1-4.05 21.84 27.98 38.42 59.49 55 90.73 0.02 1.97-0.15 4.16-2.71 3.28-14.77-31.42-32.38-61.46-52.19-89.96z" fill="#ac2807" stroke="#ac2807" stroke-width="1.6"/>
   <path d="m1070.7 548.18c8.17-0.1 8.84 14.05 0.39 13.7-8.19-0.53-9.91-13.02-0.39-13.7z" fill="#2d2a46" stroke="#2d2a46" stroke-width="1.6"/>
   <path d="m909.62 549.28c8.43-3.04 12.48 7.72 4.98 11.48-8.28 6.71-14.32-10.22-4.98-11.48z" fill="#2d2b41" stroke="#2d2b41" stroke-width="1.6"/>
   <path d="m984.15 563.9l14.72 0.04c1.02 5.56-15.64 5.46-14.72-0.04z" fill="#343434" stroke="#343434" stroke-width="1.6"/>
   <path d="m985.3 580.1c4.33 0.71 8.86-0.04 13.04 0.73 3.88 5.6-19.03 5.38-13.04-0.73z" fill="#27252f" stroke="#27252f" stroke-width="1.6"/>
   <path d="m919.18 582.24c8.55-0.41 11.89 10.78 3.22 13.44-10.46 3.79-11.92-11-3.22-13.44z" fill="#2e2a40" stroke="#2e2a40" stroke-width="1.6"/>
   <path d="m1059.7 583.38c7.11-4.05 13.9 10.74 5.74 12.32-8.94 4.01-15.53-10.12-5.74-12.32z" fill="#2e2a3f" stroke="#2e2a3f" stroke-width="1.6"/>
   <path d="m848.61 597.35c10.16-5.26 20.3 5.33 17.25 14.49-5.6-2.56-9.89-9.55-16.88-10.78-3.67 0.17-3.82-4.01-0.37-3.71z" fill="#020109" stroke="#020109" stroke-width="1.6"/>
   <path d="m1121.8 596.71c4.12 2.04 16.29-3.77 16.01 2.99-9.35 1.54-15.95 9.63-23.86 12.95 0.36-6 4.29-11.42 7.85-15.94z" fill="#03020a" stroke="#03020a" stroke-width="1.6"/>
   <path d="m984.01 598c3.63 1.75 14.8-3.52 14.98 2-3.68-1.78-14.83 3.5-14.98-2z" fill="#2b2932" stroke="#2b2932" stroke-width="1.6"/>
   <path d="m984.5 614.14c2.51 0.49 19.03-2.74 13.02 2.76-2.04-0.09-18.1 1.96-13.02-2.76z" fill="#403e47" stroke="#403e47" stroke-width="1.6"/>
   <path d="m984.09 631.02c3.52 1.46 15.26-3.37 14.8 3.12-3.75-1.98-16.08 3.95-14.8-3.12z" fill="#2e2e33" stroke="#2e2e33" stroke-width="1.6"/>
   <path d="m900.37 632.06c14.54 4.32 14.86 22.48 9.57 34.35-6.25 8.27 13.31 24.33-0.52 26.17-10.93 4.94-15.12-7.41-16.08-15.23 9.42-13.85-2.83-31.91 7.03-45.29m1.87 5.99c-8.11 11.98 6.09 25.23-3.12 36.41-3.76 6.09 3.85 18.98 9.76 11.85-10.15-15.6 9.59-36.64-6.64-48.26z" fill="#010003" stroke="#010003" stroke-width="1.6"/>
   <path d="m1079.5 632.03c10.73 4.02 6.65 23.75 4.86 33.62 6.48 8.69 5.76 30.57-9.52 27-3.16 0.66-9.69-0.35-7.19-4.9 6.04-10.55 6.2-23.91 1.37-34.97-3.42-8.46 6.89-14.15 10.48-20.75m-0.17 6.19c-14.28 13.6 5.4 33.31-6.23 48.99 14.35 4.38 10.64-15.39 5.92-22.23 2.83-7.44 6.09-21.9 0.31-26.76z" fill="#010003" stroke="#010003" stroke-width="1.6"/>
   <path d="m788.36 638.41c4.64 0.83 8.91 4.96 13.58 6.76-2.44 5.25-4.57 11.37-8.06 15.88-14.66-0.37-17.81-16.11-5.52-22.64z" fill="#1c1727" stroke="#1c1727" stroke-width="1.6"/>
   <path d="m902.24 638.05c16.23 11.62-3.51 32.66 6.64 48.26-5.91 7.13-13.52-5.76-9.76-11.85 9.21-11.18-4.99-24.43 3.12-36.41z" fill="#181624" stroke="#181624" stroke-width="1.6"/>
   <path d="m1079.3 638.22c5.78 4.86 2.52 19.32-0.31 26.76 4.72 6.84 8.43 26.61-5.92 22.23 11.63-15.68-8.05-35.39 6.23-48.99z" fill="#181624" stroke="#181624" stroke-width="1.6"/>
   <path d="m1101.7 638.89c0.53-0.11 1.58-0.33 2.1-0.43 10.84 19.46 25.42 36.28 39.26 53.51-1.87 0.93-4.93 3.55-6.25 0.38-13.58-16.47-25.3-34.51-35.11-53.46z" fill="#2b293a" stroke="#2b293a" stroke-width="1.6"/>
   <path d="m1192.2 638.35c7.12 1.96 10.67 10.29 9.71 17.25-4.94 1.94-10.08 3.12-14.96 5.15-0.15-5.87-5.71-9.92-6.85-15.59 4.05-2.24 8.43-3.85 12.1-6.81z" fill="#18172b" stroke="#18172b" stroke-width="1.6"/>
   <path d="m839.01 691.79c15.06-16.13 26.04-36.12 40.9-51.9-8.98 19.57-21.8 37.2-35.31 53.9-2.05 0.52-3.91-1.08-5.59-2z" fill="#2a2839" stroke="#2a2839" stroke-width="1.6"/>
   <path d="m883.83 642.69c0.58-0.13 1.74-0.41 2.32-0.54-4.59 15.29-5.97 31.69-3.24 47.49 1.66 15.39 21.64 19.09 33.69 18.17-5.25-18.19 31.64-15.7 23.05 1.55-9.75 9.35 18.14 3.89 14.19 10.75-18.2-1.97-36.36-5.88-54.75-6.15-3.79 9.96-3.39 32.88-21.53 24.3 3.57-10.08 16.53-20.43 9.7-31.52-12.13-19.09-11.62-43.57-3.43-64.05z" fill="#2d2b44" stroke="#2d2b44" stroke-width="1.6"/>
   <path d="m1100.3 686.28c4.59-13.35-6.52-34.88-1.17-43.42 5.96 20.17 8.5 43.55-3.12 62.17-9.74 10.62 4.21 21.81 8.24 31.79 2.83 4.49-4.14 3.21-7.02 3.08-12.7 1.02-8.28-16.66-13.29-24.02-16.75-4.34-37.66 3.42-56.12 3.86 1.81-6.57 23.58-1.67 14.2-11.07-6.59-17.19 27.65-18.66 24.46-1.21 13.4 0.07 33.93-3.83 33.82-21.18z" fill="#2d2a44" stroke="#2d2a44" stroke-width="1.6"/>
   <path d="m947.47 643.52c10.94-1.29 23.75 8.79 34.54 13.57 3.68 0.42 1.43 3.68 0.15 5.09l-1.92 1.16c-11.58-3.68-22.76-13.05-32.77-19.82z" fill="#2a263a" stroke="#2a263a" stroke-width="1.6"/>
   <path d="m1007.8 652.7c8.94-3.95 18.21-10.23 28.3-9.2-10.55 7.11-21.7 13.69-32.82 19.64-0.57-0.21-1.7-0.64-2.26-0.85-5.39-3.94 4.35-7.48 6.78-9.59z" fill="#29263a" stroke="#29263a" stroke-width="1.6"/>
   <path d="m730.29 674.92c-12.91-5.86-10.81-34.48 6.2-30.73 6.15 13.02 20.11 23.03 35.19 19.9 5.38 10.82 23.68 11.99 34.31 18.84 0.3 0.5 0.91 1.49 1.21 1.98-14.75 6.86-32.86 11.81-46.11-0.9-7.3-8.84-20.37-7.79-30.8-9.09z" fill="#ffa73b" stroke="#ffa73b" stroke-width="1.6"/>
   <path d="m1245.8 644.39c18.55-3.99 19.18 28.03 3.88 32.45-17.91-6.57-30.69 12.7-46.83 15.91-8.65-0.93-19.64-2.57-25.17-9.87l0.64-0.44c9.86-4.36 19.64-8.58 29.46-13.08-2.14-9.84 10.01-3.47 14.9-5.35 9.81-2.8 19.71-9.66 23.12-19.62z" fill="#ffa839" stroke="#ffa839" stroke-width="1.6"/>
   <path d="m984.01 648c3.63 1.75 14.8-3.52 14.98 2-3.68-1.78-14.83 3.5-14.98-2z" fill="#2b2931" stroke="#2b2931" stroke-width="1.6"/>
   <path d="m786.26 669.25c-8.38 4.36-6.37-11.61 0.63-7.14-2.28 9.29 0.91-1.25 5.09 1.49-2.81 0.77-4.28 3.36-5.72 5.65z" fill="#ae2f22" stroke="#ae2f22" stroke-width="1.6"/>
   <path d="m1193.5 665.37c4.31 2.04 1.23-6.53 6.22-4.2 2.22 6.03 0.95 9.57-3.83 8.23-0.25-0.3-0.73-0.9-0.98-1.2-0.47-0.96-0.94-1.9-1.41-2.83z" fill="#bc3007" stroke="#bc3007" stroke-width="1.6"/>
   <path d="m786.26 669.25c1.44-2.29 2.91-4.88 5.72-5.65 3.63 3.24-5.15 12.74-5.72 5.65z" fill="#fffdfb" stroke="#fffdfb" stroke-width="1.6"/>
   <path d="m986.2 664.33c4.2 0.58 9.12-0.51 12.94 1.73-0.89 4.53-21.11 3.04-12.94-1.73z" fill="#36343c" stroke="#36343c" stroke-width="1.6"/>
   <path d="m1189.6 668.11c-2.83-3.1 2.25-6.2 3.91-2.74 0.47 0.93 0.94 1.87 1.41 2.83 0.78 4.55-3.79 1.86-5.32-0.09z" fill="#fffdfb" stroke="#fffdfb" stroke-width="1.6"/>
   <path d="m1189.6 668.11c1.53 1.95 6.1 4.64 5.32 0.09 0.25 0.3 0.73 0.9 0.98 1.2 1 4.96-6.41 2.53-6.3-1.29z" fill="#978074" stroke="#978074" stroke-width="1.6"/>
   <path d="m730.29 674.92c10.43 1.3 23.5 0.25 30.8 9.09 13.25 12.71 31.36 7.76 46.11 0.9 3.97 13.7-25.44 12.07-21.97 20.41-2.87 1.85-7.4-0.16-9.4 2.61-11.19-8.2-27.12 2.08-29.23 14.48-0.26 1.51-0.97 5.09-2.73 2.47-0.38-13.08 10.15-23.32 8.83-36.28-5.56-7.04-16.77-7.71-22.41-13.68z" fill="#f87f0d" stroke="#f87f0d" stroke-width="1.6"/>
   <path d="m1202.8 692.75c16.14-3.21 28.92-22.48 46.83-15.91-4.55 5.16-15.9 4.58-19.63 12.09-2.13 10.68 6.79 18.8 7 29.23-0.43 1.19-0.51 5.8-1.86 1.12-4.01-11.03-18.87-18.98-29.02-11.04 2.03-7.02-10.31 0.64-14.05-4.1 21.01-1.57-30.6-9.6-14.44-21.26 5.53 7.3 16.52 8.94 25.17 9.87z" fill="#fa7f0c" stroke="#fa7f0c" stroke-width="1.6"/>
   <path d="m984.01 682c3.63 1.75 14.8-3.52 14.98 2-3.68-1.78-14.83 3.5-14.98-2z" fill="#313035" stroke="#313035" stroke-width="1.6"/>
   <path d="m1169.8 686.26c2.74-1.36 5.15-4.19 8.45-3.82l-0.64 0.44c-16.16 11.66 35.45 19.69 14.44 21.26-9.06-3.69-17.68-8.75-22.25-17.88z" fill="#6f1600" stroke="#6f1600" stroke-width="1.6"/>
   <path d="m805.99 682.93c2.97 1.66 7.71 2.27 9.59 4.19-9.6 5.22-17.11 17.64-30.35 18.2-3.47-8.34 25.94-6.71 21.97-20.41-0.3-0.49-0.91-1.48-1.21-1.98z" fill="#711700" stroke="#711700" stroke-width="1.6"/>
   <path d="m1138.8 706.7c-3.93-14.72 22.58-12.75 30.99-20.44 4.57 9.13 13.19 14.19 22.25 17.88 3.74 4.74 16.08-2.92 14.05 4.1-0.72 1.28-1.44 2.57-1.86 3.99l-0.23 0.71c-6.84 5.71-22.91-2.79-27.06 11.11-12.74-4.36-25-10.8-34.45-20.56-2.87-2.94-4.41 0.29-3.69 3.21z" fill="#ffa838" stroke="#ffa838" stroke-width="1.6"/>
   <path d="m785.23 705.32c13.24-0.56 20.75-12.98 30.35-18.2 9.17 4.33 18.74 7.92 27.75 12.14-9.22 11.79-24.52 23.5-39.63 22.12-3.91-7.81-15.29-10.35-21.97-4.64-3.07-1.53-2.94-6.59-5.9-8.81 2-2.77 6.53-0.76 9.4-2.61z" fill="#ffa938" stroke="#ffa938" stroke-width="1.6"/>
   <path d="m984.15 697.9l14.72 0.04c1.02 5.55-15.64 5.46-14.72-0.04z" fill="#2c2b32" stroke="#2c2b32" stroke-width="1.6"/>
   <path d="m843.33 699.26c5.71 10.54-10.45 19.29-17.57 26.55-6.75-0.15-18.05 0.75-22.06-4.43 15.11 1.38 30.41-10.33 39.63-22.12z" fill="#f47f14" stroke="#f47f14" stroke-width="1.6"/>
   <path d="m1138.8 706.7c-0.72-2.92 0.82-6.15 3.69-3.21 9.45 9.76 21.71 16.2 34.45 20.56-6.28-1.2-12.45 0.57-18.56 2.82-8.2-4.48-16.17-11.28-19.58-20.17z" fill="#f58012" stroke="#f58012" stroke-width="1.6"/>
   <path d="m746.6 722.41c2.11-12.4 18.04-22.68 29.23-14.48 2.96 2.22 2.83 7.28 5.9 8.81 6.68-5.71 18.06-3.17 21.97 4.64 4.01 5.18 15.31 4.28 22.06 4.43-1.05 2.86-6.14 2.67-4.62 7.06-3.17 3.88-2.09 9.61-6.83 12.37 3.11-0.3 10.86 3.5 11.71-0.42 5.14 2.68 8.02 0.18 7.15-4.8 3.01 0.78 0.88 6.97-1.58 8.09-13.55-6.28-11.71 11.52-18.71 18.06-1.05-0.71-2.06-1.46-3.02-2.26 3.4-4.74 8.46-11.73 7.36-16.99-6.12-1.06-14.32-3.53-10.77-11.24 0.31-9.78 16.3 5.77 13.22-4.83-5.8-8.1-18.55-1.74-16.87 8.01 1.54 10.04-12.09 18.82-7.8 27.33-3.44-4.62-6.25-3.94-11.22-1.24 11.81-6.21 15.2-19.62 16.5-31.8-3.53 1.11-2.03 7.74-7.28 7.03-4.96-1.96-14.73-3.71-11.11-11.17 0.4-12.23 19.6-5.28 19.3 2.52 6-12.61-14.42-19.86-21.11-9.29 5.58-10.64-13.86-2.9-2.29 3.93-2.23 10.56-9.95 20.02-9.14 31.04 0.07 0.38 0.22 1.14 0.29 1.52-2.95-0.91-0.04-8.32-4.76-7.68 1.92-6.27 14.66-21.83 2.12-22.17-12.35-1.99-9.84-11.13-5.19-18.75-12.01 2.97-10.41 19.13-17.42 23.96-1.66-2.79-0.42-6.28 0.18-9.21 1.76 2.62 2.47-0.96 2.73-2.47m17.03-14.28c-0.45 3.82 7.83 7.72 12.07 7.71 1.47-6.3-7.3-8.75-12.07-7.71m-0.43 6.07c-6.93 5.4 0.67 14.88 7.41 10.5 5.76-5.41-2.35-9.61-7.41-10.5m22.72 11.04c-7.3 10.26 12.59 15.81 10.86 3.83-2.47-1.89-7.4-2.87-10.86-3.83m24.26 10.83c-5.09 4.37 3.01 8.54 5.97 6.1 3-4.03-2.67-6.32-5.97-6.1z" fill="#6c1f00" stroke="#6c1f00" stroke-width="1.6"/>
   <path d="m1206.1 708.24c10.15-7.94 25.01 0.01 29.02 11.04 1.35 4.68 1.43 0.07 1.86-1.12 2.82 3.89 4.06 15.57 0.84 19.44-3.25-8.63-4.98-23.5-15.83-26.45 5.24 7.11 4.38 16.04-5.32 17.71-2.51 0.51-7.97-0.39-6.05 3.5 3.02 8.31 4.23 22.55 17.01 19.75-0.72 2.81-7.19 2.17-9.43-0.39-4.83-2.87-1.19 8.05-5.45 7.98l-0.07-0.8c5.98-10.26-7.22-19.94-6.93-30.65 3.67 3.23 0.42-9.02 0.77-12.63 4.84 0.04 9.06-2.86 12.35-6.15-3.12-4.9-9.8 1.54-12.77 3.97-0.46-0.3-1.4-0.91-1.86-1.21 0.42-1.42 1.14-2.71 1.86-3.99m11.42 6.11c-3.47 2.7-10.82 4.57-5.86 9.93 7.15 7.52 14.89-9.54 5.86-9.93z" fill="#712200" stroke="#712200" stroke-width="1.6"/>
   <path d="m763.63 708.13c4.77-1.04 13.54 1.41 12.07 7.71-4.24 0.01-12.52-3.89-12.07-7.71z" fill="#f8ad59" stroke="#f8ad59" stroke-width="1.6"/>
   <path d="m1206.1 713.44c2.97-2.43 9.65-8.87 12.77-3.97-3.29 3.29-7.51 6.19-12.35 6.15-0.1-0.54-0.31-1.64-0.42-2.18z" fill="#f6ae5c" stroke="#f6ae5c" stroke-width="1.6"/>
   <path d="m743.69 734.09c7.01-4.83 5.41-20.99 17.42-23.96-4.65 7.62-7.16 16.76 5.19 18.75 2.46 0.33 6.1 0.53 3.65 3.21-5.83 5.45-12.42 17.62-21.39 15.32-2.83-3.86-4.04-8.68-4.87-13.32z" fill="#fea93a" stroke="#fea93a" stroke-width="1.6"/>
   <path d="m1222 711.15c10.85 2.95 12.58 17.82 15.83 26.45-0.63 2.05-1.28 4.1-1.94 6.14-7.22 10.87-30.13-12.44-19.21-14.88 9.7-1.67 10.56-10.6 5.32-17.71z" fill="#ffa93a" stroke="#ffa93a" stroke-width="1.6"/>
   <path d="m1204.3 712.23c0.46 0.3 1.4 0.91 1.86 1.21 0.11 0.54 0.32 1.64 0.42 2.18-0.35 3.61 2.9 15.86-0.77 12.63-1.1-2.18-2.45-4.21-3.88-6.16-1.49-3.36 1.96-5.88 2.14-9.15l0.23-0.71z" fill="#280100" stroke="#280100" stroke-width="1.6"/>
   <path d="m1177 724.05c4.15-13.9 20.22-5.4 27.06-11.11-0.18 3.27-3.63 5.79-2.14 9.15-5.18-8.96-21.05-5.11-21.34 5.45 5.21-2.38 11.24-6.57 16.66-5.9 8.08 8.3 2.82 17.71-8.06 18.52-2.56-0.54-8.67-4.78-5.02 2.53 0.81 12.04 12.83 27.32 25.66 20.18-5.65 10.18-17.24-6.57-21.78 3.33l0.2-0.77c-2.22-11.07-9.49-22.07-9.96-34.25 6.17-9.53-3.4-9.01-0.23-0.8-3.8-3.88-11.61-4.73-14.99 0.09-0.89 7.11 8.17 1.46 11.79 1.81 3.57 4.53 2.74 13.93-4.96 13.62-10.49 1.53 0.84 17.64 7.17 20.2-7.77-3.32-17.95 7.77-23.24-5.96 3.19 2.92 11.5 10.36 15.01 5.06-3.28-5.58-6.81-11.48-8.06-18.14-7.11-0.72-11.77 2.78-8.76 9.79-1.29-5.92-4.53-13.71-2.11-20.52 2.51 0.37 5.71 0.27 7.27-2.06 0.94 0.33 1.68 0.97 2.23 1.92-3.78 10.75 1.81 7.23 4.14 12.19 1.26-5.91 0.61-16.81-4.25-20.54-0.21-0.25-0.64-0.73-0.85-0.97 6.11-2.25 12.28-4.02 18.56-2.82m17.41 1.24c-4.36 2.06-12.06 4.32-6.57 10.11 7.93 4.6 13.62-7.24 6.57-10.11m-23.07 10.98c-3.29-0.02-7.29 2.59-4.67 6.04 4.15 3.61 11.55-5.52 4.67-6.04m-17.12 2.96c-5.13-0.77-5.84 7.99-0.44 6.77 4.38-0.13 3.1-6.14 0.44-6.77z" fill="#712600" stroke="#712600" stroke-width="1.6"/>
   <path d="m763.2 714.2c5.06 0.89 13.17 5.09 7.41 10.5-6.74 4.38-14.34-5.1-7.41-10.5z" fill="#fab35d" stroke="#fab35d" stroke-width="1.6"/>
   <path d="m877.56 738.26c18.14 8.58 17.74-14.34 21.53-24.3 1.43 7.4 11.73 1.78 16.76 5.43 21.9 2.16 43.28 4.71 65.17 8.51 9.13-3.42 11.19 15.81 1.02 11.95-35-0.87-69.84-0.37-104.81-0.02 0.08-0.39 0.25-1.18 0.33-1.57z" fill="#1a172b" stroke="#1a172b" stroke-width="1.6"/>
   <path d="m1217.5 714.35c9.03 0.39 1.29 17.45-5.86 9.93-4.96-5.36 2.39-7.23 5.86-9.93z" fill="#fdb056" stroke="#fdb056" stroke-width="1.6"/>
   <path d="m984.12 715.02c4.07 1.12 13.01-2.54 15.07 2-3.78 0.57-15.7 4.23-15.07-2z" fill="#252429" stroke="#252429" stroke-width="1.6"/>
   <path d="m777.79 726.17c-11.57-6.83 7.87-14.57 2.29-3.93-0.77 1.3-1.55 2.61-2.29 3.93z" fill="#240100" stroke="#240100" stroke-width="1.6"/>
   <path d="m995.38 729.35c28.71-7.18 59.83-6.19 88.6-13.47 5.01 7.36 0.59 25.04 13.29 24.02-33.48-0.25-67.28-0.22-100.6-0.41-3.6-1.9-2.55-7.03-1.29-10.14z" fill="#1a172b" stroke="#1a172b" stroke-width="1.6"/>
   <path d="m780.08 722.24c6.69-10.57 27.11-3.32 21.11 9.29 0.3-7.8-18.9-14.75-19.3-2.52-3.62 7.46 6.15 9.21 11.11 11.17 5.62 7.65-13.23 25.8-24.35 17.03-0.81-11.02 6.91-20.48 9.14-31.04 0.74-1.32 1.52-2.63 2.29-3.93z" fill="#ffa83d" stroke="#ffa83d" stroke-width="1.6"/>
   <path d="m1180.6 727.54c0.29-10.56 16.16-14.41 21.34-5.45 1.43 1.95 2.78 3.98 3.88 6.16-0.29 10.71 12.91 20.39 6.93 30.65-13.39 2.88-21.05-7.56-26.52-17.84 0.97-0.33 1.96-0.63 2.97-0.9 10.88-0.81 16.14-10.22 8.06-18.52-5.42-0.67-11.45 3.52-16.66 5.9z" fill="#ffa839" stroke="#ffa839" stroke-width="1.6"/>
   <path d="m1178 730.38c-3.17-8.21 6.4-8.73 0.23 0.8l-0.23-0.8z" fill="#3e0500" stroke="#3e0500" stroke-width="1.6"/>
   <path d="m785.92 725.24c3.46 0.96 8.39 1.94 10.86 3.83 1.73 11.98-18.16 6.43-10.86-3.83z" fill="#fcb356" stroke="#fcb356" stroke-width="1.6"/>
   <path d="m1194.4 725.29c7.05 2.87 1.36 14.71-6.57 10.11-5.49-5.79 2.21-8.05 6.57-10.11z" fill="#fcb459" stroke="#fcb459" stroke-width="1.6"/>
   <path d="m802.8 738.86c-1.68-9.75 11.07-16.11 16.87-8.01 3.08 10.6-12.91-4.95-13.22 4.83-3.55 7.71 4.65 10.18 10.77 11.24-6.05 6.5-11.23 13.73-17.58 19.94-1.58 0.07-3.14-0.28-4.64-0.67-4.29-8.51 9.34-17.29 7.8-27.33z" fill="#fea941" stroke="#fea941" stroke-width="1.6"/>
   <path d="m1163 730.47c3.38-4.82 11.19-3.97 14.99-0.09l0.23 0.8c0.47 12.18 7.74 23.18 9.96 34.25-8.62 0.98-26.01-13.35-18.35-19.53 7.7 0.31 8.53-9.09 4.96-13.62-3.62-0.35-12.68 5.3-11.79-1.81z" fill="#fea941" stroke="#fea941" stroke-width="1.6"/>
   <path d="m1159.3 727.84c4.86 3.73 5.51 14.63 4.25 20.54-2.33-4.96-7.92-1.44-4.14-12.19 1.4-2.57 1.91-5.99-0.11-8.35z" fill="#250000" stroke="#250000" stroke-width="1.6"/>
   <path d="m766.3 728.88c12.54 0.34-0.2 15.9-2.12 22.17-4.91 4.61-12.47 1.43-15.62-3.64 8.97 2.3 15.56-9.87 21.39-15.32 2.45-2.68-1.19-2.88-3.65-3.21z" fill="#f58117" stroke="#f58117" stroke-width="1.6"/>
   <path d="m1210.6 732.36c-1.92-3.89 3.54-2.99 6.05-3.5-10.92 2.44 11.99 25.75 19.21 14.88-1.01 3.98-4.4 7.13-8.25 8.37-12.78 2.8-13.99-11.44-17.01-19.75z" fill="#f38116" stroke="#f38116" stroke-width="1.6"/>
   <path d="m793 740.18c5.25 0.71 3.75-5.92 7.28-7.03-1.3 12.18-4.69 25.59-16.5 31.8-5.93 3.6-11.17-2.23-14.84-6.22-0.07-0.38-0.22-1.14-0.29-1.52 11.12 8.77 29.97-9.38 24.35-17.03z" fill="#f08419" stroke="#f08419" stroke-width="1.6"/>
   <path d="m821.14 732.87c0.26 3.43 2.86 3.15 4.73 0.94-2.81 3.82 6.09 4.28 6.49 1.3 1.51 0.99 0.52 3.34 0.81 4.91-4.37-2-8.74-0.62-7.15 4.8-0.85 3.92-8.6 0.12-11.71 0.42 4.74-2.76 3.66-8.49 6.83-12.37z" fill="#531800" stroke="#531800" stroke-width="1.6"/>
   <path d="m825.87 733.81c1.96-1.62 5.25-0.74 6.49 1.3-0.4 2.98-9.3 2.52-6.49-1.3z" fill="#a77f55" stroke="#a77f55" stroke-width="1.6"/>
   <path d="m1149.9 736.33c0.9-3.56 4.57-3.95 7.27-2.06-1.56 2.33-4.76 2.43-7.27 2.06z" fill="#a48255" stroke="#a48255" stroke-width="1.6"/>
   <path d="m810.18 736.07c3.3-0.22 8.97 2.07 5.97 6.1-2.96 2.44-11.06-1.73-5.97-6.1z" fill="#fcaf56" stroke="#fcaf56" stroke-width="1.6"/>
   <path d="m1171.3 736.27c6.88 0.52-0.52 9.65-4.67 6.04-2.62-3.45 1.38-6.06 4.67-6.04z" fill="#fdab59" stroke="#fdab59" stroke-width="1.6"/>
   <path d="m1184.1 742.69c-3.65-7.31 2.46-3.07 5.02-2.53-1.01 0.27-2 0.57-2.97 0.9 5.47 10.28 13.13 20.72 26.52 17.84l0.07 0.8c-0.11 1.64-1.72 2.49-2.98 3.17-12.83 7.14-24.85-8.14-25.66-20.18z" fill="#f38116" stroke="#f38116" stroke-width="1.6"/>
   <path d="m826.02 744.82c-1.59-5.42 2.78-6.8 7.15-4.8 0.87 4.98-2.01 7.48-7.15 4.8z" fill="#f6ae62" stroke="#f6ae62" stroke-width="1.6"/>
   <path d="m1154.2 739.23c2.66 0.63 3.94 6.64-0.44 6.77-5.4 1.22-4.69-7.54 0.44-6.77z" fill="#fbb162" stroke="#fbb162" stroke-width="1.6"/>
   <path d="m880.78 745.29c33.49-1.4 67.78-3.38 100.92 1.12 7.1 1.86 15.93 3.76 22.65 0.11 32.58-5.38 67.69-2.32 101.11-1.33 14.03 16.43 8.53 39.95 18.05 58.35 11.1 20.75 23.29 42.49 19.46 67.17-6.3 0.31-11.66 4.24-17.97 4.22-16.05 1.8-32.1 3.86-48.12 6.05 3.99-1.82-5.82-15.16 1.68-15.82 0.57 8.45 17.91 5.34 10.48-0.97-9.38 5.39-5.67-5.97-9-10.09-0.36-2.38-0.37-4.79-0.14-7.17 4.49-3.73 11.8-3.98 15.76 0.55 1.65 4.33 0.71 11.21 8.12 8.39 0-5.99-3.69-11.36-9.2-13.65 0.21-4.73 0.31-8.63-5.59-9.26-4.67-10.43 9.73-8.75 15.96-11.13 0.4 0.07 1.2 0.22 1.59 0.29 17.75 2.7 1.09 18.91 10.28 26.76 2.26-3.2 5.75-5.81 6.44-9.87 4.81-20.73-5.34-40.37-7.73-60.58-0.76-12.43-8.87-23.34-18.66-30.44-6.04-6.6-14.49 8.67-18.84-1.46-12.97-0.39-29.04-3.47-38.59 3.49-7.28-8.57-23.07-3.84-33.59-3.04 2.51 17.73 10.59 37.54 2.25 54.72-2.87 5.74 1.67 4.08 3.98 4.12 1.62 0 3.26-0.01 4.91-0.02l-1.4 1.12c-3.16-0.38-11.78 2.02-11.22-3.86 4.97-9.4 5.95-21.59 1.44-30.77-5.98 1.81-11.82 1.38-17.14-2.04-10.06 9.21 2.02 40.21-18.44 36.8-0.3-0.29-0.89-0.89-1.19-1.19 0.66 0 1.99 0.01 2.65 0.02 2.33 0.05 4.68-0.29 6.88-1.14 0.28-18.74 6.86-37.16 4.54-56.18-7.23-3.94-18.7-5.05-23.1 3.51-1.86 1.54-3.82 4.23-6.53 3.01 2.45-3.45 8.49-11.7-1.21-9.12-12.22 8.21-33.18-8.91-47.26 3.81-6.07 4.14-7.82-6.16-13.15-3.03-11.44 6.99-20.83 19.2-21.03 33.09-2.59 20.05-13.21 39.75-7.18 60.3 3.75 4.75 11.19 14.56 1.68 17.35-12.64 3.46-7.09-10.89-5.39-17.19-16.56 2.9 0.19 30.73 9.63 28.62-4.97-8.12 1.13-8.81 7.06-13.2 0.22-4.11-6.33-6.68-4.54-11.66-3.6-6.84-1.23-14.85-4.88-21 5.97 0.94 11.82-0.08 17.68-0.93 2.81 1.43 5.77 3.33 8.99 1.84 10.14 2.41 4.71 10.51-2.11 11.66 2.91 7.09-19.03 20.21-3.5 19.88-0.61-9.81 14.8-16.94 18.46-6.11-0.76 4.88-4.2 9.93-0.04 14.82 8.98 1.61-1.7 13.15 3.39 16.97-22.35-1.09-44.8-3.41-65.97-10.57-4.53-22.83 5.78-43.65 16.83-62.66 11.31-19.4 5.31-44.66 19.84-62.66m-26.43 84.85c-1.86 2.25-3.78 6.37-1.27 8.81 4.74 1.11 6.07-9.62 1.27-8.81m275.68 0.06c-1.83 2.81-0.89 10.27 3.85 8.62 0.08-2.42 0.12-9.16-3.85-8.62m-1.84 10.97c-2.5 3.34 1.67 9.39 2 13.56 6.01-1.58 5.37-13.37-2-13.56m-12.81 9.09c-7.04 1.43-5.89 7.73 0.61 8.92 10.68-0.33-4.72 10.64 3.72 10.78 4.18-2.68 9.81-7.37 9.98-12.43-5.89 0.72-14.72 0.35-14.31-7.27m-217.12 15.01c-9.13 4.33 9.94 8.9 7.64 0.87-2.59-0.5-5.07-1.24-7.64-0.87z" fill="#3e65a0" stroke="#3e65a0" stroke-width="1.6"/>
   <path d="m981.7 746.41c6.83-3.56 15.94-3.97 22.65 0.11-6.72 3.65-15.55 1.75-22.65-0.11z" fill="#172a23" stroke="#172a23" stroke-width="1.6"/>
   <path d="m891.86 746.74c5.33-3.13 7.08 7.17 13.15 3.03 14.08-12.72 35.04 4.4 47.26-3.81 9.7-2.58 3.66 5.67 1.21 9.12-8.98 13.54 3.86 3.81 6.53-3.01 4.4-8.56 15.87-7.45 23.1-3.51 2.32 19.02-4.26 37.44-4.54 56.18-2.2 0.85-4.55 1.19-6.88 1.14-5.41 0.7-9.22-2.98-13.8-4.71 0.88 5.64 9.21 8.14 7.82 14.72-2.68 9.71 3.45 26.85-11.06 28.74-4.7-4.56 8.37-9.22 1.63-14.05-7.78-3.58-4.38 8.86-10.83 10.09-4.77 4.13 3.51 6.87 2.06 11.41 5.17-0.35 10.75-8.81 14.99-3.93-8.94 11.41-23.18 16.84-35.38 24.06-5.06 2.37-4.77-3.05-8.32-4.43-0.61 0.06-1.82 0.19-2.43 0.26-7.53 2.45-12.22-14.73-2.37-5.53 4.75-0.95 17.8 3.71 18.46-4.19 3.32-9.88-9.71-7.79-12.54-14.31 2.31-1.91 7.49-4.93 8.12-0.12 2.15 6.74 12.08 4.02 11.65-2.7-2.06-3.01-4.99-6-2.33-9.66 2.51-7.28-9.09-6.34-11.73-8.43 2.74-12.97-11.07-8.89-17.63-12.95-5.97 0.53-4.64 6.95-7.97 10.08-0.36 3.62-3.1 4.11-4.34 0.56 5.53-6.48-2.31-11.27-7.55-5.85-5.05-6.68-12.51 1.31-5.15 5 6.12-5.3 11.41 5.76 1.9 2.18-5.86 0.85-11.71 1.87-17.68 0.93 3.65 6.15 1.28 14.16 4.88 21-3.56 2.08-5.87-2.09-8.44-3.92-6.03-20.55 4.59-40.25 7.18-60.3 0.2-13.89 9.59-26.1 21.03-33.09m-0.35 21.42c-3.22-1-9.02-0.79-7.31 3.75 11.57 0.64 29.96-2.4 33.62-12.93-9.14-0.38-33-7.73-26.31 9.18m-10.32 13.94c-4.01 13.43 11.63 0.53 0 0m41.3 4.35c-8.4 6.06-18.34 9.57-28.44 10.3 5.79 14.34 31.18-3.35 28.44-10.3m-46.29 12.51c-5.15 9.67 10.67 1.18 0 0m58.17 4.24c-3.55 1.65-7.85 8.38-3.16 10.77 8.25 4.17 12.64-12.5 3.16-10.77m-36.96 2.04c-7.77 7.66 12.34 1.75 0 0m-21.87 0.94c-4.18 1.22-9.21 10.97-2.91 11.86 1.47-4.69 13.05-11.27 2.91-11.86m65.99 8.04c-6.23 2.44-1.49 9.79 3.71 7.26 5.23-1.43 0.78-9.75-3.71-7.26z" fill="#64abff" stroke="#64abff" stroke-width="1.6"/>
   <path d="m1005.8 746.98c10.52-0.8 26.31-5.53 33.59 3.04 9.55-6.96 25.62-3.88 38.59-3.49 4.35 10.13 12.8-5.14 18.84 1.46 9.79 7.1 17.9 18.01 18.66 30.44 2.39 20.21 12.54 39.85 7.73 60.58-2.18 2.91-7.12 9.36-9.24 3.19 6.31-5.03 2.11-13.86 5.81-20.1-4.48 1.18-8.77 1.94-13.29 0.02-0.39-0.07-1.19-0.22-1.59-0.29 1.63-4.44 5.29-11.55 7.99-3.58 14.76 3.05-10.07-30.88-5.45-13.19-1.22 7.94-11.69 9.04-17.72 7.58-2.07 3.86 2.78 15.74-6.4 14.88 6.07-11.34-5.39-21.5-16.61-13.97-3.95 0.74-9.18 5.97-4.77 9.38 2.79 5.12-6.16 0.92-8.77 3.12-7.66 1.98 2.79 10.62-4.38 13.12-5.76 7.11 8.34 11.3 9.16 3.75 0.52-6.24 12.02-0.33 7.76 3.84-3.36 4.14-11.27 2.55-11.71 9.49-0.35 12.51 29.04 8.26 19.79-4.13-1.93-4.76 6.3-15.45 6.06-5.19-0.23 2.38-0.22 4.79 0.14 7.17 0.54 6.63-5.37 10.92-6.07 14.68-4.9-2.68-9.59-1.53-11.36 3.9-6.86-0.74-11.79-9.38-19.09-9.79-7.09-4.24-14.64-8.32-19.94-14.81 3.98-4.2 9.7 3.7 14.74 3.82-0.74-4.42 7.12-8.05 1.88-11.95-7.05-1.16-0.61-13.5-10.47-9.45-3.82 3.88-0.32 7.98 4.07 8.67 0.54 8.46-8.22 5.53-11.04-0.27-2.15-13.01-4.6-27.17 5.29-37.11-4.79 3.08-10.6 2.84-15.97 4.03-2.31-0.04-6.85 1.62-3.98-4.12 8.34-17.18 0.26-36.99-2.25-54.72m62.85 14.67c9.55 6.76 21.01 12.66 33.18 10.34 1.77-5.4-3.94-4.46-7.86-4.06 10.02-17.42-27.55-11.22-25.32-6.28m33.62 20.49c-3.77 2.45 0.35 8.25 3.91 5.27 4.39-2.14-0.69-6.92-3.91-5.27m-39.32 4.18c3.83 9.44 16.28 19.9 27.04 13.84 2.95-1.35 2.47-7.57-2.89-4.4-9 0.22-16.92-5.62-24.15-9.44m-12.78 16.97c-8.51 1.18-1.58 14.73 5.2 10.52 3.64-3.59-0.28-11.06-5.2-10.52m36.26 1.9c-8.41 8.34 13.28 1.35 0 0m-46.36 8.99c0.47 2.12-2.5 7.79 0.84 7.66 9.49 4.94 7.27-13.29-0.84-7.66z" fill="#64abff" stroke="#64abff" stroke-width="1.6"/>
   <path d="m1177 766.1c-6.33-2.56-17.66-18.67-7.17-20.2-7.66 6.18 9.73 20.51 18.35 19.53l-0.2 0.77c-3.52 0.96-7.61 1.55-10.98-0.1z" fill="#ed8620" stroke="#ed8620" stroke-width="1.6"/>
   <path d="m817.22 746.92c1.1 5.26-3.96 12.25-7.36 16.99-2.7 2.47-6.95 2.01-10.22 2.95 6.35-6.21 11.53-13.44 17.58-19.94z" fill="#f4871f" stroke="#f4871f" stroke-width="1.6"/>
   <path d="m812.88 766.17c7-6.54 5.16-24.34 18.71-18.06 3.45 7.92-8.33 23.94-18.71 18.06z" fill="#fa9f3d" stroke="#fa9f3d" stroke-width="1.6"/>
   <path d="m1152 756.85c-3.01-7.01 1.65-10.51 8.76-9.79 1.25 6.66 4.78 12.56 8.06 18.14-3.51 5.3-11.82-2.14-15.01-5.06-0.94-0.88-1.49-2.09-1.81-3.29z" fill="#fca33c" stroke="#fca33c" stroke-width="1.6"/>
   <path d="m953.48 755.08c2.71 1.22 4.67-1.47 6.53-3.01-2.67 6.82-15.51 16.55-6.53 3.01z" fill="#4384da" stroke="#4384da" stroke-width="1.6"/>
   <path d="m891.51 768.16c-6.69-16.91 17.17-9.56 26.31-9.18-9.36 1.04-16.35 11.11-26.31 9.18z" fill="#395681" stroke="#395681" stroke-width="1.6"/>
   <path d="m1068.7 761.65c-2.23-4.94 35.34-11.14 25.32 6.28-8.91 3.82-19.72-13.5-25.32-6.28z" fill="#3d5389" stroke="#3d5389" stroke-width="1.6"/>
   <path d="m891.51 768.16c9.96 1.93 16.95-8.14 26.31-9.18-3.66 10.53-22.05 13.57-33.62 12.93-1.71-4.54 4.09-4.75 7.31-3.75z" fill="#000739" stroke="#000739" stroke-width="1.6"/>
   <path d="m1068.7 761.65c5.6-7.22 16.41 10.1 25.32 6.28 3.92-0.4 9.63-1.34 7.86 4.06-12.17 2.32-23.63-3.58-33.18-10.34z" fill="#000738" stroke="#000738" stroke-width="1.6"/>
   <path d="m970.23 807.05c20.46 3.41 8.38-27.59 18.44-36.8 5.32 3.42 11.16 3.85 17.14 2.04 4.51 9.18 3.53 21.37-1.44 30.77-0.56 5.88 8.06 3.48 11.22 3.86-2.2 4.53-8.61 5.65-13.28 6.03-6.17-1.25-12.38-1.08-18.49 0.13-4.98-0.52-10.12-2.32-13.59-6.03z" fill="#3b5c8d" stroke="#3b5c8d" stroke-width="1.6"/>
   <path d="m881.19 782.1c11.63 0.53-4.01 13.43 0 0z" fill="#3169bd" stroke="#3169bd" stroke-width="1.6"/>
   <path d="m1102.3 782.14c3.22-1.65 8.3 3.13 3.91 5.27-3.56 2.98-7.68-2.82-3.91-5.27z" fill="#3170cd" stroke="#3170cd" stroke-width="1.6"/>
   <path d="m922.49 786.45c2.74 6.95-22.65 24.64-28.44 10.3 10.1-0.73 20.04-4.24 28.44-10.3z" fill="#2c5e9b" stroke="#2c5e9b" stroke-width="1.6"/>
   <path d="m1063 786.32c7.23 3.82 15.15 9.66 24.15 9.44 5.36-3.17 5.84 3.05 2.89 4.4-10.76 6.06-23.21-4.4-27.04-13.84z" fill="#295ca0" stroke="#295ca0" stroke-width="1.6"/>
   <path d="m876.2 798.96c10.67 1.18-5.15 9.67 0 0z" fill="#3173c5" stroke="#3173c5" stroke-width="1.6"/>
   <path d="m1107.5 805.06c-4.62-17.69 20.21 16.24 5.45 13.19-2.7-7.97-6.36-0.86-7.99 3.58-6.23 2.38-20.63 0.7-15.96 11.13-4.55-3.42-0.92 3.66-4.99 2.77 2.61-5.53-7.25-12.01 0.84-14.59-5.05-4.41-11.42-6.98-18.08-7.59 11.22-7.53 22.68 2.63 16.61 13.97 9.18 0.86 4.33-11.02 6.4-14.88 6.03 1.46 16.5 0.36 17.72-7.58z" fill="#3a6db8" stroke="#3a6db8" stroke-width="1.6"/>
   <path d="m957.89 801.17c4.58 1.73 8.39 5.41 13.8 4.71-0.66-0.01-1.99-0.02-2.65-0.02-3.58-1.16-5.01 1.99-2.02 4.11 1.38 13.14-2.33 27.38-4.52 38.18-4.24-4.88-9.82 3.58-14.99 3.93 1.45-4.54-6.83-7.28-2.06-11.41 6.45-1.23 3.05-13.67 10.83-10.09 6.74 4.83-6.33 9.49-1.63 14.05 14.51-1.89 8.38-19.03 11.06-28.74 1.39-6.58-6.94-9.08-7.82-14.72z" fill="#3871be" stroke="#3871be" stroke-width="1.6"/>
   <path d="m1012.1 805.82c5.37-1.19 11.18-0.95 15.97-4.03-9.89 9.94-7.44 24.1-5.29 37.11 2.82 5.8 11.58 8.73 11.04 0.27-4.39-0.69-7.89-4.79-4.07-8.67 9.86-4.05 3.42 8.29 10.47 9.45 5.24 3.9-2.62 7.53-1.88 11.95-5.04-0.12-10.76-8.02-14.74-3.82-2.31-12.74-5.5-25.75-3.46-39.14 1.27-2.98-0.29-3.74-3.13-3.14-1.65 0.01-3.29 0.02-4.91 0.02z" fill="#346ebb" stroke="#346ebb" stroke-width="1.6"/>
   <path d="m934.37 803.2c9.48-1.73 5.09 14.94-3.16 10.77-4.69-2.39-0.39-9.12 3.16-10.77z" fill="#3567b3" stroke="#3567b3" stroke-width="1.6"/>
   <path d="m1050.2 803.29c4.92-0.54 8.84 6.93 5.2 10.52-6.78 4.21-13.71-9.34-5.2-10.52z" fill="#3566b2" stroke="#3566b2" stroke-width="1.6"/>
   <path d="m897.41 805.24c12.34 1.75-7.77 7.66 0 0z" fill="#2d6dc7" stroke="#2d6dc7" stroke-width="1.6"/>
   <path d="m1086.5 805.19c13.28 1.35-8.41 8.34 0 0z" fill="#2b6cc6" stroke="#2b6cc6" stroke-width="1.6"/>
   <path d="m875.54 806.18c10.14 0.59-1.44 7.17-2.91 11.86-6.3-0.89-1.27-10.64 2.91-11.86z" fill="#346dbc" stroke="#346dbc" stroke-width="1.6"/>
   <path d="m967.02 809.97c-2.99-2.12-1.56-5.27 2.02-4.11 0.3 0.3 0.89 0.9 1.19 1.19 3.47 3.71 8.61 5.51 13.59 6.03-1.97 1.91-7.22-1.14-4.79 2.97-4.39-1.16-8.45-3.29-12.01-6.08z" fill="#000121" stroke="#000121" stroke-width="1.6"/>
   <path d="m1017 805.8c2.84-0.6 4.4 0.16 3.13 3.14-3.86 2.51-7.3 6.31-12.1 6.82-1.11-2.45-5.92-0.39-5.71-2.81 4.67-0.38 11.08-1.5 13.28-6.03l1.4-1.12z" fill="#00021a" stroke="#00021a" stroke-width="1.6"/>
   <path d="m1008 815.76c4.8-0.51 8.24-4.31 12.1-6.82-2.04 13.39 1.15 26.4 3.46 39.14 5.3 6.49 12.85 10.57 19.94 14.81 9.43 7.5 20.66 11.88 30.89 18.01-15-7.28-36.31 6.77-46.6-8.85-7.52-13.87-9.24-31.94-22.59-41.67 1.69-4.37-3-13.61 2.8-14.62z" fill="#3e5d8d" stroke="#3e5d8d" stroke-width="1.6"/>
   <path d="m900.03 820.23c3.33-3.13 2-9.55 7.97-10.08 6.56 4.06 20.37-0.02 17.63 12.95 2.64 2.09 14.24 1.15 11.73 8.43-2.66 3.66 0.27 6.65 2.33 9.66 0.43 6.72-9.5 9.44-11.65 2.7-0.63-4.81-5.81-1.79-8.12 0.12 2.83 6.52 15.86 4.43 12.54 14.31-0.7-6.19-6.1-8.82-11.7-9.9-8.84-6.31 8.42-13.04 9.58-3.75 6.08 6.34 10.06-5.57 3.75-8.89 4.85-7.26-2.65-12.04-10.41-10.13-5.25-1.63 5.83-6.71-0.32-9.17-7.92-7.23-15.78 1.21-23.33 3.75z" fill="#4b84d3" stroke="#4b84d3" stroke-width="1.6"/>
   <path d="m967.02 809.97c3.56 2.79 7.62 4.92 12.01 6.08 3.23 5.71 4.65 18.44-5.65 21.4-6.52 13.47-11.47 27.69-17.69 41.31-14.24 2.79-29.42 2.19-43.99 2.11 5.08-2.99 10.7-5.08 15.42-8.66 12.2-7.22 26.44-12.65 35.38-24.06 2.19-10.8 5.9-25.04 4.52-38.18z" fill="#3e5c8c" stroke="#3e5c8c" stroke-width="1.6"/>
   <path d="m882.99 819.94c-7.36-3.69 0.1-11.68 5.15-5 5.24-5.42 13.08-0.63 7.55 5.85-0.61 1.05-1.22 2.1-1.81 3.17-3.22 1.49-6.18-0.41-8.99-1.84 9.51 3.58 4.22-7.48-1.9-2.18z" fill="#346ab8" stroke="#346ab8" stroke-width="1.6"/>
   <path d="m900.03 820.23c7.55-2.54 15.41-10.98 23.33-3.75 6.15 2.46-4.93 7.54 0.32 9.17 7.76-1.91 15.26 2.87 10.41 10.13 6.31 3.32 2.33 15.23-3.75 8.89-1.16-9.29-18.42-2.56-9.58 3.75 5.6 1.08 11 3.71 11.7 9.9-0.66 7.9-13.71 3.24-18.46 4.19-4.55-4.48-3-9.99 1.97-12.79-2.96-4.93-5.63-10.44-11.81-12.86-7.98-3.39 4.75-13.12-4.13-16.63z" fill="#3d66a2" stroke="#3d66a2" stroke-width="1.6"/>
   <path d="m941.53 814.22c4.49-2.49 8.94 5.83 3.71 7.26-5.2 2.53-9.94-4.82-3.71-7.26z" fill="#2d6ab2" stroke="#2d6ab2" stroke-width="1.6"/>
   <path d="m1040.1 814.18c8.11-5.63 10.33 12.6 0.84 7.66-3.34 0.13-0.37-5.54-0.84-7.66z" fill="#3169af" stroke="#3169af" stroke-width="1.6"/>
   <path d="m1062 822.93c-4.41-3.41 0.82-8.64 4.77-9.38 6.66 0.61 13.03 3.18 18.08 7.59-8.09 2.58 1.77 9.06-0.84 14.59-4.19 2.16 1.03 4.25 0.55 7.2-3.9 1.26-4.56-6.72-8.51-2.96-0.08 5.23-10.87 8.63-2.2 12.15 9.25 12.39-20.14 16.64-19.79 4.13 0.44-6.94 8.35-5.35 11.71-9.49 4.26-4.17-7.24-10.08-7.76-3.84-0.82 7.55-14.92 3.36-9.16-3.75 7.17-2.5-3.28-11.14 4.38-13.12 2.61-2.2 11.56 2 8.77-3.12z" fill="#3b67a3" stroke="#3b67a3" stroke-width="1.6"/>
   <path d="m895.69 820.79c1.24 3.55 3.98 3.06 4.34-0.56 8.88 3.51-3.85 13.24 4.13 16.63 6.18 2.42 8.85 7.93 11.81 12.86-4.97 2.8-6.52 8.31-1.97 12.79-9.85-9.2-5.16 7.98 2.37 5.53-10.82 7.03 10.43 7.27 2.43-0.26 3.55 1.38 3.26 6.8 8.32 4.43-4.72 3.58-10.34 5.67-15.42 8.66-0.4 0.07-1.21 0.23-1.62 0.31-5.09-3.82 5.59-15.36-3.39-16.97-4.16-4.89-0.72-9.94 0.04-14.82-3.66-10.83-19.07-3.7-18.46 6.11-15.53 0.33 6.41-12.79 3.5-19.88 6.82-1.15 12.25-9.25 2.11-11.66 0.59-1.07 1.2-2.12 1.81-3.17z" fill="#679de7" stroke="#679de7" stroke-width="1.6"/>
   <path d="m1106.5 822.12c4.52 1.92 8.81 1.16 13.29-0.02-3.7 6.24 0.5 15.07-5.81 20.1 2.12 6.17 7.06-0.28 9.24-3.19-0.69 4.06-4.18 6.67-6.44 9.87-9.19-7.85 7.47-24.06-10.28-26.76z" fill="#3673c9" stroke="#3673c9" stroke-width="1.6"/>
   <path d="m854.35 830.14c4.8-0.81 3.47 9.92-1.27 8.81-2.51-2.44-0.59-6.56 1.27-8.81z" fill="#74a3eb" stroke="#74a3eb" stroke-width="1.6"/>
   <path d="m1130 830.2c3.97-0.54 3.93 6.2 3.85 8.62-4.74 1.65-5.68-5.81-3.85-8.62z" fill="#6ea2e6" stroke="#6ea2e6" stroke-width="1.6"/>
   <path d="m1084 835.73c4.07 0.89 0.44-6.19 4.99-2.77 5.9 0.63 5.8 4.53 5.59 9.26 5.51 2.29 9.2 7.66 9.2 13.65-7.41 2.82-6.47-4.06-8.12-8.39-3.96-4.53-11.27-4.28-15.76-0.55 0.24-10.26-7.99 0.43-6.06 5.19-8.67-3.52 2.12-6.92 2.2-12.15 3.95-3.76 4.61 4.22 8.51 2.96 0.48-2.95-4.74-5.04-0.55-7.2z" fill="#689ced" stroke="#689ced" stroke-width="1.6"/>
   <path d="m869.57 868.91c-9.44 2.11-26.19-25.72-9.63-28.62-1.7 6.3-7.25 20.65 5.39 17.19 9.51-2.79 2.07-12.6-1.68-17.35 2.57 1.83 4.88 6 8.44 3.92-1.79 4.98 4.76 7.55 4.54 11.66-5.93 4.39-12.03 5.08-7.06 13.2z" fill="#6698e4" stroke="#6698e4" stroke-width="1.6"/>
   <path d="m1128.2 841.17c7.37 0.19 8.01 11.98 2 13.56-0.33-4.17-4.5-10.22-2-13.56z" fill="#689de4" stroke="#689de4" stroke-width="1.6"/>
   <path d="m1115.4 850.26c-0.41 7.62 8.42 7.99 14.31 7.27-0.17 5.06-5.8 9.75-9.98 12.43-8.44-0.14 6.96-11.11-3.72-10.78-6.5-1.19-7.65-7.49-0.61-8.92z" fill="#689ce2" stroke="#689ce2" stroke-width="1.6"/>
   <path d="m1080 854.1c3.33 4.12-0.38 15.48 9 10.09 7.43 6.31-9.91 9.42-10.48 0.97-7.5 0.66 2.31 14-1.68 15.82-0.62-0.02-1.85-0.06-2.47-0.08-10.23-6.13-21.46-10.51-30.89-18.01 7.3 0.41 12.23 9.05 19.09 9.79 1.77-5.43 6.46-6.58 11.36-3.9 0.7-3.76 6.61-8.05 6.07-14.68z" fill="#4e7ec6" stroke="#4e7ec6" stroke-width="1.6"/>
   <path d="m898.26 865.27c2.57-0.37 5.05 0.37 7.64 0.87 2.3 8.03-16.77 3.46-7.64-0.87z" fill="#6b99da" stroke="#6b99da" stroke-width="1.6"/>
   <path d="m916.37 868.04c0.61-0.07 1.82-0.2 2.43-0.26 8 7.53-13.25 7.29-2.43 0.26z" fill="#2965ad" stroke="#2965ad" stroke-width="1.6"/>
   <path d="m1027.8 872.05c10.29 15.62 31.6 1.57 46.6 8.85 0.62 0.02 1.85 0.06 2.47 0.08 16.02-2.19 32.07-4.25 48.12-6.05-29.61 7.47-62.68 7.89-93.62 4.92-2.08-2.15-2.77-5.07-3.57-7.8z" fill="#434565" stroke="#434565" stroke-width="1.6"/>
   <path d="m836.97 875.91c1.08-2 3.66-2.34 5.7-2.01 3.93 2.79-5.3 6.14-5.7 2.01z" fill="#fcdfd5" stroke="#fcdfd5" stroke-width="1.6"/>
   <path d="m842.67 873.9c2.8 0.89 12.88 2.33 6.9 4.69-4.53 4.64 4.87-0.53 7.56-0.21 16.96 5.2 34.74 4.86 52.12 7.5-17.24-0.7-34.91-0.46-51.46-6.02-8.97 3.63-16.1 14.7-17.57 24.89 8.23 3.32 17.8 4.97 24.77 11.37 10.52 4.29 12.24 21.48 25.28 19.73 19.54 0.84 39.08 1.79 58.62 2.31 0.1 0.67 0.29 2.01 0.38 2.67-21.51-3.36-43.37-1.03-65-2.87-2.26-0.61-4.49-1.22-6.68-1.82-0.16-3.28-2.15-5.6-4.59-7.56-5.56-6.57-12.06-12.16-19.9-15.8-13.94-6.29-30.11-6.45-45.06-4.57-6.48-0.76 2.24-7.22 3.97-10.01 1.28 6.3 9.93-0.8 14.62 1.45-5.49 7.6 10.59 4.84 11.32 0.29-0.82-5.19-9.3-3.34-13.7-4.07-1.35-2.03-6.51-2.45-3.49-5.64 4.23 4.95 13.74 0.93 20.24 3.66 1.05-8.16-12.17-4.96-16.82-5.69 1.25-1.11 2.46-2.26 3.7-3.39 6.56 0.72 13.07-1.11 19.62 1.12 0.64-6.52-9.85-5.88-14.36-5.89 1.75-0.89 2.77-2.57 3.83-4.13 0.4 4.13 9.63 0.78 5.7-2.01z" fill="#570200" stroke="#570200" stroke-width="1.6"/>
   <path d="m1141.8 874.94c3.26-0.9 7.97-1.64 7.92 2.92-3.05 0.43-5.72-0.92-7.92-2.92z" fill="#f6e0ce" stroke="#f6e0ce" stroke-width="1.6"/>
   <path d="m1050 886.05c30.63-0.61 64.87-1.59 91.76-11.11 2.2 2 4.87 3.35 7.92 2.92 1.03 0.72 2.07 1.46 3.14 2.19-4.34 0.23-14.7-0.72-14.51 5.9 6.12-2.14 13.99 0.09 18.97-2.98 0.93 1.33 1.72 2.76 2.57 4.18-5.24 0.85-10.83 1.12-15.57 3.71-2.7 5.56 9.41-0.14 5.78 6.18-1.17 0.72-2.72 1.4-1.78 3.03 2.38 0.93 5.25 2.17 1.96 5.25 4.16-1.04 11.65 0.68 10.27-5.56 3.98 1.26 7.22 4.1 11.44 1.08 1.58-0.01 1.74-1.42 2-2.65 0.82 4.35 9.55 5.47 5.76 10.19-15.63-1.69-32.1-2.18-46.77 4.35-9.82 4.89-18 12.22-24.34 21.11-0.15 0.61-0.44 1.82-0.58 2.43l-0.04 0.91c-23.95 3.18-48.22 0.29-72.11 4.04 0.5-1.06 1-2.11 1.51-3.15 5.53-0.25 11.11-0.6 16.66-0.87 9.7-0.11 19.43-0.33 29.12-0.97 6.39-1 13.58 1.49 19.66-1.04 3.44-3.44 6.61-7.17 9.47-11.11 2.24-2.59 4.79-4.92 7.56-6.95 7.35-6.73 16.8-9.32 25.96-12.27-2.68-4.73-2.12-15.12-7.67-15.89-4.32-2.73-3.49-11.54-10.82-8.63-12.92 3.45-26.25 4.58-39.57 5.26-3.81 0.28-7.5 0.74-11.27 1.16-8.83 0.12-17.78 1.13-26.48-0.71z" fill="#580200" stroke="#580200" stroke-width="1.6"/>
   <path d="m827.88 884.81c1.38-1.96 3.06-3.73 5.26-4.77 4.51 0.01 15-0.63 14.36 5.89-6.55-2.23-13.06-0.4-19.62-1.12z" fill="#ffd6be" stroke="#ffd6be" stroke-width="1.6"/>
   <path d="m840.22 904.75c1.47-10.19 8.6-21.26 17.57-24.89 8.76 1.59 5.62 12.1-0.55 14.27 1.15 8.67 10.71-2.76 15.28 1.62 0.03 3.42 2.39 9.78-2.66 11.13-9.15 0.18 4.47 11.25-4.87 9.24-6.97-6.4-16.54-8.05-24.77-11.37z" fill="#dc0400" stroke="#dc0400" stroke-width="1.6"/>
   <path d="m857.79 879.86c16.55 5.56 34.22 5.32 51.46 6.02 12.03 0.74 24.06-0.6 36.09-0.46 6.52 16.62 7.1 35.35 3.55 52.74-19.54-0.52-39.08-1.47-58.62-2.31-13.04 1.75-14.76-15.44-25.28-19.73 9.34 2.01-4.28-9.06 4.87-9.24 5.05-1.35 2.69-7.71 2.66-11.13-4.57-4.38-14.13 7.05-15.28-1.62 6.17-2.17 9.31-12.68 0.55-14.27m78.3 13.6c-18.13 1.3-16.99 33.13-0.18 35.48 16.79-2.66 16.72-32.8 0.18-35.48m-56.67 10.79c-10.75 2.82-1.97 17.12 6.15 12.41 7.08-4.31 1.35-14.41-6.15-12.41z" fill="#bf0000" stroke="#bf0000" stroke-width="1.6"/>
   <path d="m1087.8 885.6c13.32-0.68 26.65-1.81 39.57-5.26 7.33-2.91 6.5 5.9 10.82 8.63-5.48-0.77-5.76-10.98-13.84-6.93-8.19 2.43 3.48 9.79-3.28 12.53-10.39-3.02-11.38 14.71-1.19 14.63-0.69 3.19-6.72 6.89 0.02 7.93-2.77 2.03-5.32 4.36-7.56 6.95-7.7-14.1-29.94 15.79-9.47 11.11-6.08 2.53-13.27 0.04-19.66 1.04 0.78-7.46-12.43-11.97-18.56-6.08-3.93 2.17-15.29-0.75-10.56 7.05-5.55 0.27-11.13 0.62-16.66 0.87-4.34-10.69-1.88-22.68-1.23-33.87 1.37-8.23 0.14-25.34 13.85-18.15 8.7 1.84 17.65 0.83 26.48 0.71 2.92 8.29 15.34 7.99 21.68 4.23 0.15-5.85-6.17-5.28-10.41-5.39m-40.03 7.81c-14.39 5.68-13.57 34.17 3.13 35.37 17.65-3.11 15.63-37.38-3.13-35.37m57.52 11.15c-8.51-2.17-13.51 10.57-3.77 12.45 9.7 3.74 15.18-13.28 3.77-12.45z" fill="#bd0000" stroke="#bd0000" stroke-width="1.6"/>
   <path d="m1138.3 885.95c-0.19-6.62 10.17-5.67 14.51-5.9 1.51 0.91 3.04 1.82 4.46 2.92-4.98 3.07-12.85 0.84-18.97 2.98z" fill="#ffd6c9" stroke="#ffd6c9" stroke-width="1.6"/>
   <path d="m1121 894.57c6.76-2.74-4.91-10.1 3.28-12.53 8.08-4.05 8.36 6.16 13.84 6.93 5.55 0.77 4.99 11.16 7.67 15.89-9.16 2.95-18.61 5.54-25.96 12.27-6.74-1.04-0.71-4.74-0.02-7.93-10.19 0.08-9.2-17.65 1.19-14.63z" fill="#d90300" stroke="#d90300" stroke-width="1.6"/>
   <path d="m1076.5 886.76c3.77-0.42 7.46-0.88 11.27-1.16 4.24 0.11 10.56-0.46 10.41 5.39-6.34 3.76-18.76 4.06-21.68-4.23z" fill="#e20700" stroke="#e20700" stroke-width="1.6"/>
   <path d="m1144.3 890.86c4.74-2.59 10.33-2.86 15.57-3.71 2.78 1.24 9.61 6.08 3.27 7.01-5.6-4.57-14.03 1.38-18.84-3.3z" fill="#ffc4b7" stroke="#ffc4b7" stroke-width="1.6"/>
   <path d="m824.18 888.2c4.65 0.73 17.87-2.47 16.82 5.69-6.5-2.73-16.01 1.29-20.24-3.66 1.11-0.72 2.26-1.38 3.42-2.03z" fill="#ffcbb7" stroke="#ffcbb7" stroke-width="1.6"/>
   <path d="m1150.1 897.04c3.63-6.32-8.48-0.62-5.78-6.18 4.81 4.68 13.24-1.27 18.84 3.3 3.36 1.3 7.47 0.87 10.25 3.52-7.59-1.77-15.74-2.86-23.31-0.64z" fill="#741402" stroke="#741402" stroke-width="1.6"/>
   <path d="m936.09 893.46c16.54 2.68 16.61 32.82-0.18 35.48-16.81-2.35-17.95-34.18 0.18-35.48m-3.17 4.89c-10.96 4.45-7.38 32.78 7.79 24.89 6.67-7.36 5.86-29.28-7.79-24.89z" fill="#580100" stroke="#580100" stroke-width="1.6"/>
   <path d="m1047.7 893.41c18.76-2.01 20.78 32.26 3.13 35.37-16.7-1.2-17.52-29.69-3.13-35.37m-0.89 4.72c-10.22 5.94-7.28 31.03 7.27 25.35 9.22-6.45 6.47-29.02-7.27-25.35z" fill="#520000" stroke="#520000" stroke-width="1.6"/>
   <path d="m812.01 898.2c3.2-3.13 8.28-1.95 12.24-2.33 4.4 0.73 12.88-1.12 13.7 4.07-3.79-0.08-7.56-0.17-11.32-0.29-4.69-2.25-13.34 4.85-14.62-1.45z" fill="#ffdacc" stroke="#ffdacc" stroke-width="1.6"/>
   <path d="m1150.1 897.04c7.57-2.22 15.72-1.13 23.31 0.64l0.58 0.51c-0.26 1.23-0.42 2.64-2 2.65-7.65-3.74-15.73-1.7-23.67-0.77-0.94-1.63 0.61-2.31 1.78-3.03z" fill="#ffe3ca" stroke="#ffe3ca" stroke-width="1.6"/>
   <path d="m932.92 898.35c13.65-4.39 14.46 17.53 7.79 24.89-15.17 7.89-18.75-20.44-7.79-24.89z" fill="#fff" stroke="#fff" stroke-width="1.6"/>
   <path d="m1046.8 898.13c13.74-3.67 16.49 18.9 7.27 25.35-14.55 5.68-17.49-19.41-7.27-25.35z" fill="#fff" stroke="#fff" stroke-width="1.6"/>
   <path d="m1148.3 900.07c7.94-0.93 16.02-2.97 23.67 0.77-4.22 3.02-7.46 0.18-11.44-1.08 1.38 6.24-6.11 4.52-10.27 5.56 3.29-3.08 0.42-4.32-1.96-5.25z" fill="#ad1b0f" stroke="#ad1b0f" stroke-width="1.6"/>
   <path d="m826.63 899.65c3.76 0.12 7.53 0.21 11.32 0.29-0.73 4.55-16.81 7.31-11.32-0.29z" fill="#a61f06" stroke="#a61f06" stroke-width="1.6"/>
   <path d="m879.42 904.25c7.5-2 13.23 8.1 6.15 12.41-8.12 4.71-16.9-9.59-6.15-12.41z" fill="#e90400" stroke="#e90400" stroke-width="1.6"/>
   <path d="m1105.2 904.56c11.41-0.83 5.93 16.19-3.77 12.45-9.74-1.88-4.74-14.62 3.77-12.45z" fill="#ea0300" stroke="#ea0300" stroke-width="1.6"/>
   <path d="m808.04 908.21c14.95-1.88 31.12-1.72 45.06 4.57-6.41 0.19 2.34 6.03 2.84 8.83 0.53 6.1-4.54 10.59-9.25 13.52-5.47 0.01-10.92-0.04-16.36-0.09-16.1-0.54-13.55-20.31-0.3-23.5-12.32-6.07-39.29 2.58-35.59 21.39-1.97 1.97-12.66 3.06-11.81-3 4.95-10.13 13.46-20.48 25.41-21.72z" fill="#fff" stroke="#fff" stroke-width="1.6"/>
   <path d="m1133 912.73c14.67-6.53 31.14-6.04 46.77-4.35 10.83 3.23 19.68 13.76 24.55 23.6-0.05 0.44-0.15 1.31-0.21 1.75l-0.9 0.17c-4.25-0.45-9.21 1.53-13.07-0.65 7.94-18.33-18.91-25.21-31.95-23.44-5.37 0.15 2.39 4.95 3.7 5.48 9.23 4.81 4.65 20.76-6.17 19.74-5.44 0.07-10.86 0.08-16.26 0.09-8.02-2.73-12.5-14.09-5.13-20.02 2.41-1.61 0.7-2.09-1.33-2.37z" fill="#fff" stroke="#fff" stroke-width="1.6"/>
   <path d="m794.44 932.93c-3.7-18.81 23.27-27.46 35.59-21.39-13.25 3.19-15.8 22.96 0.3 23.5-16.08-0.65-32.1-0.89-48.18-0.28-0.12-0.64-0.37-1.92-0.5-2.56 0.25-0.57 0.74-1.7 0.98-2.27-0.85 6.06 9.84 4.97 11.81 3z" fill="#d0d2d7" stroke="#d0d2d7" stroke-width="1.6"/>
   <path d="m1161.8 915.29c-1.31-0.53-9.07-5.33-3.7-5.48 13.04-1.77 39.89 5.11 31.95 23.44 3.86 2.18 8.82 0.2 13.07 0.65-15.69 2.22-31.68-1.22-47.49 1.13 10.82 1.02 15.4-14.93 6.17-19.74z" fill="#d0d2d6" stroke="#d0d2d6" stroke-width="1.6"/>
   <path d="m855.94 921.61c-0.5-2.8-9.25-8.64-2.84-8.83 7.84 3.64 14.34 9.23 19.9 15.8 10.05 13.75-17.42 3.61-26.31 6.55 4.71-2.93 9.78-7.42 9.25-13.52z" fill="#d0d2d4" stroke="#d0d2d4" stroke-width="1.6"/>
   <path d="m1108.6 933.84c6.34-8.89 14.52-16.22 24.34-21.11 2.03 0.28 3.74 0.76 1.33 2.37-7.37 5.93-2.89 17.29 5.13 20.02-10.18-1.1-20.95 1.87-30.8-1.28z" fill="#d2d1d3" stroke="#d2d1d3" stroke-width="1.6"/>
   <path d="m1102.8 935.19c-20.47 4.68 1.77-25.21 9.47-11.11-2.86 3.94-6.03 7.67-9.47 11.11z" fill="#de0700" stroke="#de0700" stroke-width="1.6"/>
   <path d="m1064.6 930.15c6.13-5.89 19.34-1.38 18.56 6.08-9.69 0.64-19.42 0.86-29.12 0.97-4.73-7.8 6.63-4.88 10.56-7.05z" fill="#e30700" stroke="#e30700" stroke-width="1.6"/>
   <path d="m873 928.58c2.44 1.96 4.43 4.28 4.59 7.56-27.61-0.22-55.23-0.3-82.84 0.08-4.09-0.62-9.54 0.73-12.6-1.46 16.08-0.61 32.1-0.37 48.18 0.28 5.44 0.05 10.89 0.1 16.36 0.09 8.89-2.94 36.36 7.2 26.31-6.55z" fill="#9e9c9e" stroke="#9e9c9e" stroke-width="1.6"/>
   <path d="m1108 936.27c0.14-0.61 0.43-1.82 0.58-2.43 9.85 3.15 20.62 0.18 30.8 1.28 5.4-0.01 10.82-0.02 16.26-0.09 15.81-2.35 31.8 1.09 47.49-1.13l0.9-0.17c-1.15 5-10.04 0.99-13.76 2.56-27.42-0.46-54.86-0.48-82.27-0.02z" fill="#9e9ea2" stroke="#9e9ea2" stroke-width="1.6"/>
   <path d="m794.75 936.22c27.61-0.38 55.23-0.3 82.84-0.08 2.19 0.6 4.42 1.21 6.68 1.82-29.82-1.45-59.73-0.15-89.52-1.74z" fill="#3c3d3c" stroke="#3c3d3c" stroke-width="1.6"/>
   <path d="m1108 936.27c27.41-0.46 54.85-0.44 82.27 0.02-27.41 0.85-54.9 1.34-82.31 0.89l0.04-0.91z" fill="#393a3e" stroke="#393a3e" stroke-width="1.6"/>
   <path d="m776.98 939.47 4.8286 6.2982h7.3478c0.83974 0 13.016 0.20992 13.016 0.20992l94.892-0.41992 40.308-0.41984 12.176 0.20992 2.3093-1.8894 0.62984-3.149-1.8894-1.8894-1.2596 2.9391-1.8894 1.6795-7.7677 1.0497-18.894-0.41992-33.8-0.41984-35.27 0.20992-24.563 0.41992-22.883 0.41984-19.944-0.83976-2.3093-2.0994-2.0994-6.0882-1.0497 2.5192z" fill-rule="evenodd" stroke="#000" stroke-width="1.6"/>
   <path d="m1034.8 939.26 2.7291 4.1987 1.2597 2.0994 3.149 0.41992 21.834 0.20992h104.76s19.633 0.66028 29.391-0.20992c2.0512-0.18291 4.3019-0.025 6.0882-1.0497 1.5078-0.86493 2.709-2.3766 3.359-3.9888 0.3934-0.97572 0.21-3.1491 0.21-3.1491l-1.0497-3.7789-1.2596 1.6795s0.1749 3.0779 0.2099 4.6186c0.011 0.48971 0.1668 1.0089 0 1.4695-0.3721 1.0278-1.1448 1.9866-2.0994 2.5193-2.1605 1.2056-4.8759 0.94519-7.3478 1.0497-6.0928 0.25754-18.265-1.0497-18.265-1.0497h-65.92l-69.699-0.41984-2.3092-0.21-0.8398-1.2596-0.8398-2.3093-2.7292-1.8894z" fill-rule="evenodd" stroke="#000" stroke-width="1.6"/>
   <path d="m917.58 1.4132s15.482-5.9674 23.291-7.7637c5.6702-1.3043 11.473-1.9465 17.206-2.9376 5.5974-0.9676 11.131-2.3982 16.786-2.9376 8.2171-0.78379 16.506-0.50538 24.76-0.41966 7.4188 0.07705 14.903-0.24691 22.242 0.83932 6.0079 0.88918 11.854 2.7248 17.626 4.6162 7.5781 2.4836 22.242 8.8128 22.242 8.8128l-3.3572 2.5179-13.219-2.9376s-7.7756-4.4407-13.009-6.085c-4.9862-1.5666-9.5263-1.2776-14.688-2.0983-6.2229-0.98945-12.793-1.0108-19.094-1.0491-8.6773-0.052794-17.38 0.01613-26.019 0.83931-6.2043 0.59123-12.314 1.9357-18.465 2.9376-5.8788 0.95751-11.809 1.6543-17.626 2.9376-4.1094 0.90668-13.429 2.0983-13.429 2.0983z" fill-rule="evenodd" stroke="#000" stroke-width=".8px"/>
  </g>
 </g>
</svg>
