<?xml version="1.0" encoding="UTF-8"?>
<svg viewBox="0 0 730.03 628.19" xmlns="http://www.w3.org/2000/svg">
 <path d="m140.86 33.943c-41.335 0-64.571 21.371-64.571 65.036v450.12c0 40.843 20.891 62.228 62.192 62.228h452.02c41.303 0 62.226-20.32 62.226-62.228v-450.12c0-42.6-20.923-65.036-63.523-65.036 0 0-448.49-0.142-448.35 0h-1.5e-5z" stroke="#fff"/>
 <g fill="none" stroke="#fff" stroke-linejoin="round" stroke-width="20">
  <path d="m569.37 469.47v-300.81h-408.71v300.81h408.71z"/>
  <path d="m365.01 319.07"/>
  <path d="m165.51 463.57l140.1-142.11"/>
  <path d="m562.97 461.97l-136.45-138.6"/>
 </g>
 <path d="m165.46 172.49l176.32 178.67c13.069 13.17 36.848 13.014 49.641 0.12003l176.2-177.35" fill="none" stroke="#fff" stroke-width="20"/>
</svg>
