<?xml version="1.0" encoding="UTF-8"?>
<svg viewBox="0 0 705.86975 812.71387" xmlns="http://www.w3.org/2000/svg">
 <g transform="matrix(1.4878 0 0 1.4878 -101.56 -571.74)">
  <path d="m81.463 644.62 272-74.871c15.885-5.533 31.407-2.388 46.564 9.436l132.31 133.74c10.215 8.993 12.882 24.515 8 46.564l-18.872 61.128-274.87 106.87c-19.771 7.115-39.19 1.781-58.257-16l-97.436-154.87-22.564-82.871c-0.703-14.193 3.674-23.903 13.128-29.129z"/>
 </g>
 <g transform="matrix(1.4878 0 0 1.4878 -101.56 -571.74)" fill="#fff">
  <path d="m68.335 673.75c-0.473-9.559 1.357-17.084 5.491-22.576 60.812 91.454 96.721 145.45 111.91 168.27l-1.226 85.962-93.609-148.79-22.564-82.871z"/>
 </g>
 <g transform="matrix(1.4878 0 0 1.4878 -101.56 -571.74)" fill="#fff">
  <path d="m163.71 679.4c0-43.1 65.348-78.039 145.96-78.039s145.96 34.939 145.96 78.039-65.349 78.038-145.96 78.038-145.96-34.939-145.96-78.038z"/>
 </g>
 <g transform="matrix(1.4878 0 0 1.4878 -101.56 -571.74)">
  <path d="m165.19 688.21c0-43.1 65.348-78.038 145.96-78.038s145.96 34.938 145.96 78.038-65.348 78.038-145.96 78.038-145.96-34.938-145.96-78.038z"/>
 </g>
 <g transform="matrix(1.4878 0 0 1.4878 -101.56 -571.74)" fill="#f00">
  <path d="m189.77 771.19c0-13.255 16.302-24 36.411-24s36.411 10.745 36.411 24-16.302 24-36.411 24-36.411-10.745-36.411-24z"/>
 </g>
 <g transform="matrix(1.4878 0 0 1.4878 -101.56 -571.74)" fill="#fff">
  <path d="m262.548,770.006c.029.391.044.784.044,1.18 0,13.255-16.302,24-36.411,24-19.962,0-36.234-10.588-36.408-23.71v18.776c21.558,21.757 60.311,22.369 75.495-2.446l-2.72-17.8z"/>
 </g>
 <g transform="matrix(1.4878 0 0 1.4878 -101.56 -571.74)" fill="#fff">
  <path d="m190.16 678.66c0-35.572 55.334-64.408 123.59-64.408s123.59 28.836 123.59 64.408-55.333 64.407-123.59 64.407-123.59-28.835-123.59-64.407z"/>
 </g>
 <g transform="matrix(1.4878 0 0 1.4878 -101.56 -571.74)">
  <path d="m192.45 684.21c0-33.771 54.273-61.147 121.22-61.147s121.22 27.376 121.22 61.147-54.273 61.146-121.22 61.146-121.22-27.376-121.22-61.146z"/>
 </g>
 <g transform="matrix(1.4878 0 0 1.4878 -101.56 -571.74)" fill="#fff">
  <path d="m199.64 691.4c0-31.604 50.143-57.223 112-57.223s112 25.619 112 57.223-50.144 57.222-112 57.222-112-25.619-112-57.222z"/>
 </g>
 <g transform="matrix(1.4878 0 0 1.4878 -101.56 -571.74)">
  <path d="m210.08 684.62c0-28.311 45.683-51.261 102.04-51.261s102.04 22.95 102.04 51.261-45.683 51.262-102.04 51.262-102.04-22.95-102.04-51.262z"/>
 </g>
 <g transform="matrix(1.4878 0 0 1.4878 -101.56 -571.74)" fill="#fff">
  <path d="m209.27 674.25c0-27.818 45.136-50.369 100.82-50.369s100.82 22.551 100.82 50.369-45.136 50.369-100.82 50.369-100.82-22.55-100.82-50.369z"/>
 </g>
 <g transform="matrix(1.4878 0 0 1.4878 -101.56 -571.74)">
  <path d="m218.9 671.48c0-26.735 42.25-48.408 94.369-48.408s94.37 21.673 94.37 48.408-42.25 48.408-94.37 48.408-94.369-21.673-94.369-48.408z"/>
 </g>
 <g transform="matrix(1.4878 0 0 1.4878 -101.56 -571.74)" fill="#fff">
  <path d="m226.08 659.88c0-29.17 39.033-52.816 87.184-52.816s87.185 23.646 87.185 52.816-39.033 52.815-87.185 52.815-87.184-23.646-87.184-52.815z"/>
 </g>
 <g transform="matrix(1.4878 0 0 1.4878 -101.56 -571.74)">
  <path d="m230.16 660.21c0-21.416 36.513-38.777 81.554-38.777s81.554 17.361 81.554 38.777-36.512 38.777-81.554 38.777-81.554-17.361-81.554-38.777z"/>
 </g>
 <g transform="matrix(1.4878 0 0 1.4878 -101.56 -571.74)" fill="#fff">
  <path d="m244.53 654.99c0-19.432 30.261-35.185 67.592-35.185s67.592 15.753 67.592 35.185-30.262 35.185-67.592 35.185-67.592-15.753-67.592-35.185z"/>
 </g>
 <g transform="matrix(1.4878 0 0 1.4878 -101.56 -571.74)">
  <path d="m253.34 652.29c0-15.239 26.497-27.592 59.184-27.592s59.185 12.353 59.185 27.592-26.497 27.593-59.185 27.593-59.184-12.354-59.184-27.593z"/>
 </g>
 <g transform="matrix(1.4878 0 0 1.4878 -101.56 -571.74)" fill="#fff">
  <path d="m266.08 644.62c0-11.453 21.307-20.738 47.592-20.738s47.592 9.285 47.592 20.738-21.307 20.739-47.592 20.739-47.592-9.285-47.592-20.739z"/>
 </g>
 <g transform="matrix(1.4878 0 0 1.4878 -101.56 -571.74)">
  <path d="m274.08 639.4c0-7.754 16.482-14.039 36.815-14.039s36.815 6.285 36.815 14.039-16.482 14.038-36.815 14.038-36.815-6.285-36.815-14.038z"/>
 </g>
 <g transform="matrix(1.4878 0 0 1.4878 -101.56 -571.74)">
  <path d="m189.77,776.186c0-.844.067-1.678.195-2.5 1.897,12.08 17.387,21.5 36.216,21.5s34.319-9.42 36.216-21.5c.129.822.195,1.656.195,2.5 0,13.255-16.302,24-36.411,24s-36.411-10.745-36.411-24z"/>
 </g>
 <g transform="matrix(1.4878 0 0 1.4878 -101.56 -571.74)" fill="#fff">
  <path d="m534.78 715.36c7.115 8.047 9.441 20.236 6.978 36.565l-313.22 96.771c-30.038 6.895-51.916-0.613-65.631-22.522l-94.635-154.83c-0.071-8.155 1.664-14.716 5.203-19.683l110.99 167.33c8.953 7.259 27.349 8.89 55.185 4.892l278.52-88c9.325-6.075 14.863-12.915 16.615-20.521z"/>
 </g>
 <g transform="matrix(1.4878 0 0 1.4878 -101.56 -571.74)">
  <path d="m284.34 395.18c1.648-2.092 3.881-3.884 6.584-5.403l-0.01 250.91c-2.919-1.56-5.186-3.409-6.574-5.513v-240z"/>
 </g>
 <g transform="matrix(1.4878 0 0 1.4878 -101.56 -571.74)" fill="#fff">
  <path d="m302.874,385.55c2.579-.528 5.267-.89 8.05-1.09 0,121.924-.005,209.895-.011,261.308-2.774-.194-5.454-.546-8-1.046-4.574-.9-8.692-2.265-11.999-4.028l.01-250.912c3.408-1.906 7.506-3.317 11.95-4.232z"/>
 </g>
 <g transform="matrix(1.4878 0 0 1.4878 -101.56 -571.74)">
  <path d="m328.041,644.813c-5.596,1.065-11.5,1.347-17.128.955 .006-51.413.011-139.384.011-261.308 5.694-.405 11.581-.089 17.078.946 8.424,1.593 15.89,4.847 20.338,9.779v239.996c-5.009,5.008-12.338,8.114-20.299,9.632z"/>
 </g>
 <g transform="matrix(1.4878 0 0 1.4878 -101.56 -571.74)">
  <path d="m284.34 395.18c11.416-14.495 50.866-14.564 64 0v10.843c-10.968 2.358-23.945 3.722-37.852 3.722-9.231 0-18.052-0.601-26.148-1.695v-12.87z"/>
 </g>
 <g transform="matrix(1.4878 0 0 1.4878 -101.56 -571.74)" fill="#fff">
  <path d="m310.488,404.75c6.154,0 12.126-.267 17.822-.769l.001,5c-5.697.502-11.669.769-17.823.769-9.231,0-18.052-.601-26.148-1.695v-9c8.096,1.094 16.917,5.695 26.148,5.695z"/>
 </g>
</svg>
