<?xml version='1.0' encoding='utf-8'?>
<svg xmlns="http://www.w3.org/2000/svg" width="100.25px" height="116.09px" enable-background="new 0 0 100.25 116.093" version="1.1" viewBox="0 0 100.25 116.093">
	<path d="m17.932 54.761c-4.464 0-9.653 1.263-9.653 5.737 0 4.09 4.609 6.095 9.943 6.095 5.362 0 10.059-1.647 10.059-5.848-1e-3 -3.513-2.987-5.984-10.349-5.984zm0.347 8.099c-4.203 0-6.696-0.796-6.696-2.224 0-1.62 3.102-2.114 6.522-2.114 3.972 0 6.87 0.576 6.87 2.086 1e-3 1.455-2.261 2.252-6.696 2.252z" fill="none"/>
	<path d="m16.308 49.082l-7.797 0.906v3.733l19.537-3.157v-3.569l-6.377-1.236c-1.913-0.384-4.087-0.686-6.436-1.015v-0.055c2.377-0.247 4.609-0.521 6.406-0.823l6.406-1.099v-3.706l-19.536-3.267v3.514l7.739 0.906c2.261 0.247 4.349 0.467 6.899 0.713v0.055c-2.551 0.22-4.725 0.549-6.928 0.878l-7.711 1.235v2.91l7.768 1.318c2.35 0.384 4.465 0.796 6.871 1.043v0.083c-2.377 0.22-4.609 0.385-6.841 0.633z" fill="none"/>
	<path d="m17.932 18.56c-4.464 0-9.653 1.263-9.653 5.738 0 4.09 4.609 6.095 9.943 6.095 5.362 0 10.059-1.647 10.059-5.848-1e-3 -3.514-2.987-5.985-10.349-5.985zm0.347 8.099c-4.203 0-6.696-0.796-6.696-2.224 0-1.62 3.102-2.114 6.522-2.114 3.972 0 6.87 0.576 6.87 2.086 1e-3 1.456-2.261 2.252-6.696 2.252z" fill="none"/>
	<polygon points="28.048 67.03 24.831 67.03 24.831 71.779 8.511 71.779 8.511 75.375 28.048 75.375" fill="none"/>
	<polygon points="19.989 102 16.83 102 16.83 106.17 11.815 106.17 11.815 101.72 8.511 101.72 8.511 109.76 28.048 109.76 28.048 106.17 19.989 106.17" fill="none"/>
	<polygon points="8.511 85.805 28.048 85.805 28.048 77.459 24.831 77.459 24.831 82.208 8.511 82.208" fill="none"/>
	<path d="m17.932 88.081c-4.464 0-9.653 1.263-9.653 5.737 0 4.09 4.609 6.095 9.943 6.095 5.362 0 10.059-1.647 10.059-5.848-1e-3 -3.514-2.987-5.984-10.349-5.984zm0.347 8.098c-4.203 0-6.696-0.796-6.696-2.224 0-1.62 3.102-2.114 6.522-2.114 3.972 0 6.87 0.576 6.87 2.086 1e-3 1.456-2.261 2.252-6.696 2.252z" fill="none"/>
	<path d="m28.048 13.128h-4.406c-3.913 0-6.928 0.137-8.898 0.219v-0.055c1.768-0.412 4.232-1.263 5.885-1.867l7.42-2.828v-3.293h-19.538v3.156h4.319c3.594 0 6.985-0.247 9.044-0.356v0.055c-1.682 0.521-4.203 1.428-5.711 1.977l-7.652 2.854v3.294h19.537v-3.156z" fill="none"/>
	<path d="m18.105 58.522c-3.421 0-6.522 0.494-6.522 2.114 0 1.428 2.493 2.224 6.696 2.224 4.435 0 6.696-0.796 6.696-2.251 1e-3 -1.511-2.898-2.087-6.87-2.087z"/>
	<path d="m18.105 22.321c-3.421 0-6.522 0.494-6.522 2.114 0 1.428 2.493 2.224 6.696 2.224 4.435 0 6.696-0.796 6.696-2.251 1e-3 -1.511-2.898-2.087-6.87-2.087z"/>
	<path d="m18.105 91.841c-3.421 0-6.522 0.494-6.522 2.114 0 1.428 2.493 2.224 6.696 2.224 4.435 0 6.696-0.796 6.696-2.251 1e-3 -1.511-2.898-2.087-6.87-2.087z"/>
	<path d="m57.305 55.606c-2.525 0.046-5.053 0.03-7.579 1e-3 -0.929-0.01-1.354 0.271-1.337 1.3 0.05 3.478 0.017 6.957 0.017 10.436 0 5.481-4e-3 10.961 5e-3 16.442 1e-3 1.268 0.082 1.33 1.226 1.329 2.495-2e-3 4.99-2e-3 7.482 2e-3 1.324 3e-3 1.324 8e-3 1.324-1.274 0-4.463 0-8.925 3e-3 -13.389 0-4.529-0.012-9.058 0.01-13.588 3e-3 -0.834-0.19-1.276-1.151-1.259z"/>
	<path d="m35.034 96.392c-0.857-1.363-0.9-2.946-0.902-4.482-0.015-19.315 0.048-38.63-0.031-57.944-0.019-4.571 3.582-7.82 8.015-7.741 8.802 0.156 17.607 0.035 26.41 0.03 10.019-2e-3 20.038-0.016 30.057 0.016 0.07 0 0.142 4e-3 0.212 5e-3v-20.209c0-2.349-1.902-4.252-4.252-4.252h-87.874c-2.348 0-4.252 1.903-4.252 4.252v104.88c0 2.349 1.904 4.252 4.252 4.252h87.873c2.35 0 4.252-1.903 4.252-4.252v-10.882c-18.979 0.025-37.958 4e-3 -56.938 0.013-2.963 0-5.251-1.189-6.822-3.688zm-26.523-83.402l7.652-2.855c1.508-0.549 4.029-1.455 5.711-1.977v-0.054c-2.059 0.11-5.45 0.356-9.044 0.356h-4.319v-3.156h19.537v3.294l-7.42 2.828c-1.652 0.604-4.117 1.455-5.885 1.867v0.055c1.971-0.082 4.985-0.219 8.898-0.219h4.406v3.157h-19.536v-3.296zm19.537 96.77h-19.537v-8.043h3.305v4.447h5.015v-4.173h3.159v4.173h8.059v3.59zm-9.826-9.847c-5.334 0-9.943-2.004-9.943-6.095 0-4.475 5.189-5.737 9.653-5.737 7.362 0 10.349 2.471 10.349 5.984-1e-3 4.2-4.697 5.848-10.059 5.848zm6.609-17.705v-4.749h3.217v8.345h-19.537v-3.596h16.32zm-16.32-6.833v-3.596h16.32v-4.75h3.217v8.346h-19.537zm9.711-8.782c-5.334 0-9.943-2.004-9.943-6.095 0-4.475 5.189-5.737 9.653-5.737 7.362 0 10.349 2.471 10.349 5.984-1e-3 4.201-4.697 5.848-10.059 5.848zm-1.944-19.268l-7.768-1.318v-2.91l7.711-1.235c2.203-0.329 4.377-0.659 6.928-0.878v-0.055c-2.551-0.247-4.639-0.466-6.899-0.713l-7.739-0.906v-3.514l19.537 3.267v3.706l-6.406 1.099c-1.797 0.302-4.029 0.576-6.406 0.823v0.055c2.349 0.329 4.522 0.631 6.436 1.015l6.377 1.236v3.569l-19.538 3.155v-3.733l7.797-0.906c2.232-0.248 4.465-0.412 6.842-0.631v-0.083c-2.407-0.247-4.522-0.659-6.872-1.043zm1.944-16.932c-5.334 0-9.943-2.004-9.943-6.095 0-4.475 5.189-5.738 9.653-5.738 7.362 0 10.349 2.471 10.349 5.985-1e-3 4.2-4.697 5.848-10.059 5.848z"/>
	<path d="m92.379 59.886c-1.242-2.194-3.191-3.472-5.517-4.327-2.078-0.762-4.199-0.873-6.301-0.461-2.673 0.527-4.964 1.818-6.493 4.212-0.101 6e-3 -0.2 0.011-0.3 0.016-0.116-0.375-0.274-0.743-0.331-1.127-0.052-0.351 0.021-0.718 0.016-1.08-0.025-1.399-0.111-1.474-1.548-1.471-2.396 4e-3 -4.798 0.075-7.191-0.023-1.036-0.042-1.211 0.337-1.211 1.226 0.014 9.034 9e-3 18.066-0.027 27.098-5e-3 0.943 0.38 1.189 1.226 1.179 2.364-0.024 4.729-0.016 7.095-4e-3 1.681 5e-3 1.683-0.017 1.675-1.687-0.018-4.862-0.014-9.724-0.014-14.584 0-2.083 0.449-3.935 2.288-5.26 2.309-1.659 6.794-1.737 8.146 2.06 0.378 1.061 0.575 2.24 0.589 3.367 0.062 5.025 0.036 10.051 0.017 15.078-3e-3 0.736 0.187 1.06 0.999 1.047 2.66-0.038 5.321-0.015 7.981 0 0.649 6e-3 0.971-0.236 0.967-0.923-0.048-6.11-0.071-12.217-0.127-18.326-0.021-2.196-0.882-4.145-1.939-6.01z"/>
	<path d="m56.146 41.799c-1.732-0.684-3.443-0.687-5.183-0.085-2.272 0.785-3.7 3.474-3.017 5.687 0.791 2.551 2.752 3.973 5.446 3.954 1.585-0.027 2.938-0.529 4.189-1.584 2.085-1.756 2.265-6.513-1.435-7.972z"/>
</svg>