<?xml version="1.0" encoding="UTF-8"?>
<svg enable-background="new 0 0 74.089 99.818" viewBox="0 0 74.089 99.818" xmlns="http://www.w3.org/2000/svg">
 <path d="m21.547 0.091s-21.827 0.287-21.544 20.059 4.253 37.255 10.773 46.998 23.242 35.248 42.236 32.67c0 0 9.355-2.007 16.44-6.593l-22.96-18.054s-6.803 4.299-11.055-1.433-17.575-32.381-17.575-32.381-3.685-8.598 4.536-12.323l-0.851-28.943z"/>
 <path d="m24.099.091c0,0 1.701-.571 4.818,1.147s3.118,3.15 3.118,3.15l.284,19.775c0,0-.851,1.147-1.984,2.291-1.134,1.146-4.819,2.867-5.387,1.72-.565-1.145-.849-28.083-.849-28.083z"/>
 <path d="m48.401 73.058 6.312-3.332s1.417-0.285 3.684 1.146c2.268 1.436 14.174 10.893 14.174 10.893s1.984 1.719 1.417 3.725-1.984 6.305-1.984 6.305l-23.603-18.737z"/>
</svg>
